<?xml version="1.0" encoding="UTF-8"?>
<svg xmlns="http://www.w3.org/2000/svg" id="Layer_3" viewBox="0 0 1920 974">
  <defs>
    <style>.cls-1{fill:#fff;}.cls-2{fill:#735af5;}.cls-3{fill:#1e154b;}.cls-4{fill:none;stroke:#1e154b;stroke-miterlimit:10;stroke-width:4px;}</style>
  </defs>
  <line class="cls-4" x1="554.64" y1="792.85" x2="1365.36" y2="792.85"></line>
  <path d="m598.48,840.43c0-6.53,5.42-11.47,12.43-11.47,8.4,0,13.06,6.82,13.06,15.99,0,11.76-5.57,18.39-13.59,18.39-6.91,0-11.57-4.18-12.29-9.55h5.95c.53,2.5,2.88,4.27,6.14,4.27,4.51,0,7.58-4.42,7.87-10.32-1.39,2.35-4.75,4.03-7.82,4.03-7.01,0-11.76-4.9-11.76-11.33Zm12.34,5.9c3.6,0,6.05-2.45,6.05-5.9s-2.45-5.95-6.05-5.95-5.95,2.45-5.95,5.95,2.4,5.9,5.95,5.9Z"></path>
  <path d="m628.24,840.43c0-6.53,5.42-11.47,12.43-11.47,8.4,0,13.06,6.82,13.06,15.99,0,11.76-5.57,18.39-13.59,18.39-6.91,0-11.57-4.18-12.29-9.55h5.95c.53,2.5,2.88,4.27,6.14,4.27,4.51,0,7.58-4.42,7.87-10.32-1.39,2.35-4.75,4.03-7.82,4.03-7.01,0-11.76-4.9-11.76-11.33Zm12.34,5.9c3.6,0,6.05-2.45,6.05-5.9s-2.45-5.95-6.05-5.95-5.95,2.45-5.95,5.95,2.4,5.9,5.95,5.9Z"></path>
  <path d="m663.23,856.75v6.19h-6.43v-6.19h6.43Z"></path>
  <path d="m667.6,840.43c0-6.53,5.42-11.47,12.43-11.47,8.4,0,13.06,6.82,13.06,15.99,0,11.76-5.57,18.39-13.59,18.39-6.91,0-11.57-4.18-12.29-9.55h5.95c.53,2.5,2.88,4.27,6.14,4.27,4.51,0,7.58-4.42,7.87-10.32-1.39,2.35-4.75,4.03-7.82,4.03-7.01,0-11.76-4.9-11.76-11.33Zm12.34,5.9c3.6,0,6.05-2.45,6.05-5.9s-2.45-5.95-6.05-5.95-5.95,2.45-5.95,5.95,2.4,5.9,5.95,5.9Z"></path>
  <path d="m697.36,840.43c0-6.53,5.42-11.47,12.43-11.47,8.4,0,13.06,6.82,13.06,15.99,0,11.76-5.57,18.39-13.59,18.39-6.91,0-11.57-4.18-12.29-9.55h5.95c.53,2.5,2.88,4.27,6.14,4.27,4.51,0,7.58-4.42,7.87-10.32-1.39,2.35-4.75,4.03-7.82,4.03-7.01,0-11.76-4.9-11.76-11.33Zm12.34,5.9c3.6,0,6.05-2.45,6.05-5.9s-2.45-5.95-6.05-5.95-5.95,2.45-5.95,5.95,2.4,5.9,5.95,5.9Z"></path>
  <path d="m727.12,840.43c0-6.53,5.42-11.47,12.43-11.47,8.4,0,13.06,6.82,13.06,15.99,0,11.76-5.57,18.39-13.59,18.39-6.91,0-11.57-4.18-12.29-9.55h5.95c.53,2.5,2.88,4.27,6.14,4.27,4.51,0,7.58-4.42,7.87-10.32-1.39,2.35-4.75,4.03-7.82,4.03-7.01,0-11.76-4.9-11.76-11.33Zm12.34,5.9c3.6,0,6.05-2.45,6.05-5.9s-2.45-5.95-6.05-5.95-5.95,2.45-5.95,5.95,2.4,5.9,5.95,5.9Z"></path>
  <path d="m756.88,840.43c0-6.53,5.42-11.47,12.43-11.47,8.4,0,13.06,6.82,13.06,15.99,0,11.76-5.57,18.39-13.59,18.39-6.91,0-11.57-4.18-12.29-9.55h5.95c.53,2.5,2.88,4.27,6.14,4.27,4.51,0,7.58-4.42,7.87-10.32-1.39,2.35-4.75,4.03-7.82,4.03-7.01,0-11.76-4.9-11.76-11.33Zm12.34,5.9c3.6,0,6.05-2.45,6.05-5.9s-2.45-5.95-6.05-5.95-5.95,2.45-5.95,5.95,2.4,5.9,5.95,5.9Z"></path>
  <path d="m792.97,828.96c4.32,0,7.3,3.36,7.3,7.68s-2.98,7.68-7.3,7.68-7.34-3.36-7.34-7.68,3.02-7.68,7.34-7.68Zm17.91.38h5.23l-24.39,33.6h-5.23l24.39-33.6Zm-17.91,11.14c1.92,0,3.22-1.63,3.22-3.84s-1.3-3.84-3.22-3.84-3.17,1.63-3.17,3.84,1.25,3.84,3.17,3.84Zm16.71,7.49c4.32,0,7.3,3.36,7.3,7.68s-2.98,7.68-7.3,7.68-7.34-3.36-7.34-7.68,3.02-7.68,7.34-7.68Zm0,11.52c1.92,0,3.22-1.63,3.22-3.84s-1.3-3.84-3.22-3.84-3.17,1.63-3.17,3.84,1.25,3.84,3.17,3.84Z"></path>
  <path class="cls-2" d="m1365.36,301.89v115.1c-123.84,27.5-261.02,42.78-405.36,42.78s-281.52-15.28-405.36-42.78v-115.1c0-11,9-20,20-20h770.72c11,0,20,9,20,20Z"></path>
  <path class="cls-3" d="m769.67,68.41h8.37l15.74,41.27h-9.2l-3.24-9.02h-14.92l-3.24,9.02h-9.2l15.68-41.27Zm-.59,24.82h9.61l-4.83-13.38-4.78,13.38Z"></path>
  <path class="cls-3" d="m791.79,79.97h8.37l6.25,19.22,6.19-19.22h8.43l-10.91,29.72h-7.49l-10.85-29.72Z"></path>
  <path class="cls-3" d="m822.56,101.26c0-5.84,4.36-9.37,10.91-9.37h4.95c1.47,0,2.24-.94,2.24-2.18,0-2.48-1.89-4.19-5.25-4.19-3.6,0-5.48,2.24-5.54,4.72h-7.31c.29-5.95,5.13-10.73,13.27-10.73,7.55,0,13.03,4.36,13.03,11.08v19.1h-8.2v-4.13c-1,2.77-4.3,4.6-8.37,4.6-5.72,0-9.73-3.83-9.73-8.9Zm11.85,2.95c3.95,0,6.25-2.95,6.25-6.72v-.41h-5.95c-2.54,0-4.25,1.53-4.25,3.83,0,1.95,1.65,3.3,3.95,3.3Z"></path>
  <path class="cls-3" d="m854.99,67.06h8.73v8.67h-8.73v-8.67Zm.24,12.91h8.2v29.72h-8.2v-29.72Z"></path>
  <path class="cls-3" d="m870.14,67.06h8.2v42.63h-8.2v-42.63Z"></path>
  <path class="cls-3" d="m883.82,101.26c0-5.84,4.36-9.37,10.91-9.37h4.95c1.47,0,2.24-.94,2.24-2.18,0-2.48-1.89-4.19-5.25-4.19-3.6,0-5.48,2.24-5.54,4.72h-7.31c.29-5.95,5.13-10.73,13.27-10.73,7.55,0,13.03,4.36,13.03,11.08v19.1h-8.2v-4.13c-1,2.77-4.3,4.6-8.37,4.6-5.72,0-9.73-3.83-9.73-8.9Zm11.85,2.95c3.95,0,6.25-2.95,6.25-6.72v-.41h-5.96c-2.54,0-4.25,1.53-4.25,3.83,0,1.95,1.65,3.3,3.95,3.3Z"></path>
  <path class="cls-3" d="m924.68,106.44v3.24h-8.2v-42.63h8.2v16.04c1.65-2.18,4.54-3.6,8.25-3.6,8.61,0,13.92,6.07,13.92,15.33s-5.31,15.33-14.03,15.33c-3.42,0-6.49-1.42-8.14-3.71Zm6.78-3.36c4.36,0,7.25-3.3,7.25-8.25s-2.89-8.31-7.25-8.31-7.25,3.3-7.25,8.31,2.89,8.25,7.25,8.25Z"></path>
  <path class="cls-3" d="m951.8,67.06h8.73v8.67h-8.73v-8.67Zm.24,12.91h8.2v29.72h-8.2v-29.72Z"></path>
  <path class="cls-3" d="m966.96,67.06h8.2v42.63h-8.2v-42.63Z"></path>
  <path class="cls-3" d="m981.64,67.06h8.73v8.67h-8.73v-8.67Zm.24,12.91h8.2v29.72h-8.2v-29.72Z"></path>
  <path class="cls-3" d="m1007.99,71.19v8.79h7.96v6.84h-7.96v11.73c0,2.89,1.47,4.25,4.13,4.25h3.83v6.9h-4.89c-6.84,0-11.32-3.89-11.32-10.79v-12.09h-5.66v-6.84h5.66v-8.79h8.25Z"></path>
  <path class="cls-3" d="m1028.39,109.39l-10.79-29.42h8.37l6.25,19.16,6.19-19.16h8.43l-8.9,24.29-6.13,17.45h-7.84l4.42-12.32Z"></path>
  <path class="cls-3" d="m1060.17,95.65h8.49c.35,4.19,3.12,6.84,7.55,6.84,3.89,0,6.54-1.65,6.54-4.78,0-8.08-21.4-1.89-21.4-18.1,0-6.84,5.9-11.67,14.33-11.67,8.9,0,14.86,5.13,15.09,12.97h-8.37c-.35-3.24-2.83-5.37-6.72-5.37-3.54,0-5.72,1.65-5.72,4.07,0,8.61,21.7,1.65,21.7,17.98,0,7.72-6.25,12.56-15.45,12.56s-15.68-5.72-16.04-14.5Z"></path>
  <path class="cls-3" d="m1097.79,68.41h8.9v33.61h18.69v7.67h-27.59v-41.27Z"></path>
  <path class="cls-3" d="m1142.13,68.41h8.37l15.74,41.27h-9.2l-3.24-9.02h-14.92l-3.24,9.02h-9.2l15.68-41.27Zm-.59,24.82h9.61l-4.83-13.38-4.78,13.38Z"></path>
  <path class="cls-3" d="m298.11,174.52c0-8.73,2.83-18.1,7.78-25.35h5.48c-4.72,7.84-7.49,16.98-7.49,25.35s2.77,17.51,7.49,25.35h-5.48c-4.95-7.25-7.78-16.63-7.78-25.35Z"></path>
  <path class="cls-3" d="m329.18,150.82h5.66l16.21,41.27h-6.37l-3.95-10.5h-17.45l-3.95,10.5h-6.37l16.21-41.27Zm-3.89,25.41h13.44l-6.72-17.75-6.72,17.75Z"></path>
  <path class="cls-3" d="m356.36,192.09v-41.27h6.19v18.98l18.1-18.98h7.72l-15.68,16.51,17.39,24.76h-7.49l-14.09-20.34-5.96,6.31v14.03h-6.19Z"></path>
  <path class="cls-3" d="m406.36,150.82h5.66l16.21,41.27h-6.37l-3.95-10.5h-17.45l-3.95,10.5h-6.37l16.21-41.27Zm-3.89,25.41h13.44l-6.72-17.75-6.72,17.75Z"></path>
  <path class="cls-3" d="m443.45,183.6c0-5.72,4.54-9.26,11.56-9.26h6.19c1.36,0,2-.71,2-1.77,0-3.6-2.59-6.07-7.19-6.07-4.13,0-7.13,2.59-7.31,5.6h-5.31c.47-5.84,5.78-10.2,12.79-10.2,7.66,0,12.74,4.42,12.74,11.03v19.16h-5.72v-4.83c-1.42,3.24-5.19,5.31-9.67,5.31-6.07,0-10.08-3.66-10.08-8.96Zm11.2,4.42c5.42,0,8.55-3.48,8.55-8.96v-.71h-7.66c-3.89,0-6.43,2-6.43,5.13,0,2.71,2.24,4.54,5.54,4.54Z"></path>
  <path class="cls-3" d="m472.99,162.37h5.9l7.84,22.52,7.78-22.52h5.95l-10.91,29.72h-5.66l-10.91-29.72Z"></path>
  <path class="cls-3" d="m503.47,183.6c0-5.72,4.54-9.26,11.56-9.26h6.19c1.36,0,2-.71,2-1.77,0-3.6-2.59-6.07-7.19-6.07-4.13,0-7.13,2.59-7.31,5.6h-5.31c.47-5.84,5.78-10.2,12.79-10.2,7.66,0,12.74,4.42,12.74,11.03v19.16h-5.72v-4.83c-1.42,3.24-5.19,5.31-9.67,5.31-6.07,0-10.08-3.66-10.08-8.96Zm11.2,4.42c5.42,0,8.55-3.48,8.55-8.96v-.71h-7.66c-3.89,0-6.43,2-6.43,5.13,0,2.71,2.24,4.54,5.54,4.54Z"></path>
  <path class="cls-3" d="m536.55,149.93h6.37v7.19h-6.37v-7.19Zm.35,12.44h5.72v29.72h-5.72v-29.72Z"></path>
  <path class="cls-3" d="m550.93,149.93h5.72v42.16h-5.72v-42.16Z"></path>
  <path class="cls-3" d="m563.61,183.6c0-5.72,4.54-9.26,11.56-9.26h6.19c1.36,0,2-.71,2-1.77,0-3.6-2.59-6.07-7.19-6.07-4.13,0-7.13,2.59-7.31,5.6h-5.31c.47-5.84,5.78-10.2,12.79-10.2,7.67,0,12.74,4.42,12.74,11.03v19.16h-5.72v-4.83c-1.42,3.24-5.19,5.31-9.67,5.31-6.07,0-10.08-3.66-10.08-8.96Zm11.2,4.42c5.42,0,8.55-3.48,8.55-8.96v-.71h-7.66c-3.89,0-6.43,2-6.43,5.13,0,2.71,2.24,4.54,5.54,4.54Z"></path>
  <path class="cls-3" d="m602.76,187.67v4.42h-5.72v-42.16h5.72v16.8c1.71-2.89,5.31-4.83,9.37-4.83,9.08,0,14.21,6.49,14.21,15.33s-5.13,15.33-14.27,15.33c-3.95,0-7.61-1.95-9.32-4.89Zm8.67-.12c5.48,0,9.14-4.13,9.14-10.32s-3.66-10.32-9.14-10.32-9.14,4.13-9.14,10.32,3.6,10.32,9.14,10.32Z"></path>
  <path class="cls-3" d="m632.47,149.93h6.37v7.19h-6.37v-7.19Zm.35,12.44h5.72v29.72h-5.72v-29.72Z"></path>
  <path class="cls-3" d="m646.86,149.93h5.72v42.16h-5.72v-42.16Z"></path>
  <path class="cls-3" d="m660.54,149.93h6.37v7.19h-6.37v-7.19Zm.35,12.44h5.72v29.72h-5.72v-29.72Z"></path>
  <path class="cls-3" d="m683.18,153.06v9.32h8.79v4.95h-8.79v14.86c0,3.18,1.77,4.95,4.6,4.95h4.19v4.95h-4.6c-6.01,0-9.91-3.66-9.91-9.73v-15.03h-6.07v-4.95h6.07v-9.32h5.72Z"></path>
  <path class="cls-3" d="m705.35,192.38l-11.03-30.01h5.9l7.84,22.29,7.78-22.29h5.96l-9.43,25.71-5.48,16.04h-5.48l3.95-11.73Z"></path>
  <path class="cls-3" d="m737.42,177.23c0-8.9,6.43-15.33,15.33-15.33s15.27,6.43,15.27,15.33-6.37,15.33-15.27,15.33-15.33-6.43-15.33-15.33Zm15.33,10.32c5.6,0,9.43-4.25,9.43-10.32s-3.83-10.32-9.43-10.32-9.49,4.25-9.49,10.32,3.83,10.32,9.49,10.32Z"></path>
  <path class="cls-3" d="m780.11,187.67v4.42h-5.72v-42.16h5.72v16.8c1.71-2.89,5.31-4.83,9.37-4.83,9.08,0,14.21,6.49,14.21,15.33s-5.13,15.33-14.27,15.33c-3.95,0-7.61-1.95-9.32-4.89Zm8.67-.12c5.48,0,9.14-4.13,9.14-10.32s-3.66-10.32-9.14-10.32-9.14,4.13-9.14,10.32,3.6,10.32,9.14,10.32Z"></path>
  <path class="cls-3" d="m803.93,199.34h2.3c2.54,0,3.95-1.77,3.95-5.01v-31.96h5.72v32.31c0,6.07-3.3,9.43-9.08,9.43h-2.89v-4.78Zm5.9-49.41h6.37v7.19h-6.37v-7.19Z"></path>
  <path class="cls-3" d="m822.21,177.05c0-8.31,5.19-15.15,14.33-15.15s14.09,6.54,14.09,14.09c0,.77-.06,1.71-.12,2.24h-22.7c.47,5.6,4.13,9.43,9.32,9.43,4.36,0,7.19-1.89,8.02-5.25h5.72c-1.06,6.13-6.43,10.14-13.74,10.14-9.2,0-14.92-7.25-14.92-15.51Zm22.64-3.01c-.35-4.54-3.42-7.55-8.31-7.55s-7.66,2.59-8.55,7.55h16.86Z"></path>
  <path class="cls-3" d="m855.34,177.23c0-8.2,5.37-15.33,14.68-15.33,6.96,0,12.97,4.13,13.8,10.85h-5.72c-.53-3.36-3.89-5.84-7.96-5.84-5.9,0-8.84,4.6-8.84,10.32s3.01,10.32,8.9,10.32c4.07,0,7.02-2.12,7.96-5.48h5.66c-.94,6.25-6.19,10.5-13.8,10.5-9.32,0-14.68-7.13-14.68-15.33Z"></path>
  <path class="cls-3" d="m898.03,153.06v9.32h8.79v4.95h-8.79v14.86c0,3.18,1.77,4.95,4.6,4.95h4.19v4.95h-4.6c-6.01,0-9.91-3.66-9.91-9.73v-15.03h-6.07v-4.95h6.07v-9.32h5.72Z"></path>
  <path class="cls-3" d="m912.12,149.93h6.37v7.19h-6.37v-7.19Zm.35,12.44h5.72v29.72h-5.72v-29.72Z"></path>
  <path class="cls-3" d="m923.27,162.37h5.9l7.84,22.52,7.78-22.52h5.95l-10.91,29.72h-5.66l-10.91-29.72Z"></path>
  <path class="cls-3" d="m953.1,177.05c0-8.31,5.19-15.15,14.33-15.15s14.09,6.54,14.09,14.09c0,.77-.06,1.71-.12,2.24h-22.7c.47,5.6,4.13,9.43,9.32,9.43,4.36,0,7.19-1.89,8.02-5.25h5.72c-1.06,6.13-6.43,10.14-13.74,10.14-9.2,0-14.92-7.25-14.92-15.51Zm22.64-3.01c-.35-4.54-3.42-7.55-8.31-7.55s-7.67,2.59-8.55,7.55h16.86Z"></path>
  <path class="cls-3" d="m999.8,177.23c0-8.9,6.43-15.33,15.33-15.33s15.27,6.43,15.27,15.33-6.37,15.33-15.27,15.33-15.33-6.43-15.33-15.33Zm15.33,10.32c5.6,0,9.43-4.25,9.43-10.32s-3.83-10.32-9.43-10.32-9.49,4.25-9.49,10.32,3.83,10.32,9.49,10.32Z"></path>
  <path class="cls-3" d="m1042.49,178.64v13.44h-5.72v-29.72h5.72v5.72c1.36-3.95,3.71-5.72,7.9-5.72h3.6v4.95h-4.3c-5.42,0-7.19,4.83-7.19,11.32Z"></path>
  <path class="cls-3" d="m1078.27,153.06v9.32h8.79v4.95h-8.79v14.86c0,3.18,1.77,4.95,4.6,4.95h4.19v4.95h-4.6c-6.01,0-9.91-3.66-9.91-9.73v-15.03h-6.07v-4.95h6.07v-9.32h5.72Z"></path>
  <path class="cls-3" d="m1092.72,149.93h5.72v17.69c1.59-3.71,5.13-5.72,9.55-5.72,6.72,0,11.08,4.83,11.08,11.91v18.28h-5.72v-17.16c0-4.72-2.77-7.9-6.96-7.9-4.66,0-7.96,3.77-7.96,8.96v16.1h-5.72v-42.16Z"></path>
  <path class="cls-3" d="m1125.03,177.05c0-8.31,5.19-15.15,14.33-15.15s14.09,6.54,14.09,14.09c0,.77-.06,1.71-.12,2.24h-22.7c.47,5.6,4.13,9.43,9.32,9.43,4.36,0,7.19-1.89,8.02-5.25h5.72c-1.06,6.13-6.43,10.14-13.74,10.14-9.2,0-14.92-7.25-14.92-15.51Zm22.64-3.01c-.35-4.54-3.42-7.55-8.31-7.55s-7.67,2.59-8.55,7.55h16.86Z"></path>
  <path class="cls-3" d="m1172.55,164.38c0-8.08,6.43-14.03,14.98-14.03,9.79,0,15.57,7.9,15.57,19.22,0,15.09-6.9,23.05-16.27,23.05-7.96,0-13.62-4.78-14.62-11.32h5.96c.77,3.66,3.95,6.01,8.49,6.01,6.19,0,10.38-6.43,10.73-14.8-1.71,3.48-6.07,5.9-10.32,5.9-8.61,0-14.5-6.01-14.5-14.03Zm14.92,8.61c5.07,0,8.67-3.54,8.67-8.55s-3.6-8.67-8.67-8.67-8.67,3.6-8.67,8.67,3.54,8.55,8.67,8.55Z"></path>
  <path class="cls-3" d="m1212.17,156.18v-6.25h5.42v6.54c0,4.25-2.77,7.19-6.78,7.19h-2.12v-4.54h.88c1.59,0,2.59-1.18,2.59-2.95Z"></path>
  <path class="cls-3" d="m1219.66,182.42h5.37c.35,3.42,2.77,5.37,6.66,5.37,3.36,0,5.6-1.83,5.6-4.01,0-7.9-16.86-.65-16.86-13.32,0-5.13,4.36-8.55,10.55-8.55,6.72,0,11.26,3.71,11.62,9.32h-5.42c-.41-3.42-3.66-4.78-6.19-4.78-3.12,0-5.19,1.53-5.19,3.83,0,7.37,17.04-.18,17.04,13.38,0,5.42-4.42,8.9-11.14,8.9s-11.62-3.89-12.03-10.14Z"></path>
  <path class="cls-3" d="m1260.93,177.23c0-8.9,6.43-15.33,15.33-15.33s15.27,6.43,15.27,15.33-6.37,15.33-15.27,15.33-15.33-6.43-15.33-15.33Zm15.33,10.32c5.6,0,9.43-4.25,9.43-10.32s-3.83-10.32-9.43-10.32-9.49,4.25-9.49,10.32,3.83,10.32,9.49,10.32Z"></path>
  <path class="cls-3" d="m1300.08,167.32h-6.07v-4.95h6.07v-2.89c0-5.84,3.83-9.55,9.79-9.55h4.95v4.95h-4.48c-2.77,0-4.54,1.83-4.54,4.78v2.71h9.02v4.95h-9.02v24.76h-5.72v-24.76Z"></path>
  <path class="cls-3" d="m1330.21,183.6c0-5.72,4.54-9.26,11.56-9.26h6.19c1.36,0,2-.71,2-1.77,0-3.6-2.59-6.07-7.19-6.07-4.13,0-7.13,2.59-7.31,5.6h-5.31c.47-5.84,5.78-10.2,12.79-10.2,7.67,0,12.74,4.42,12.74,11.03v19.16h-5.72v-4.83c-1.42,3.24-5.19,5.31-9.67,5.31-6.07,0-10.08-3.66-10.08-8.96Zm11.2,4.42c5.42,0,8.55-3.48,8.55-8.96v-.71h-7.67c-3.89,0-6.43,2-6.43,5.13,0,2.71,2.24,4.54,5.54,4.54Z"></path>
  <path class="cls-3" d="m1359.75,162.37h5.9l7.84,22.52,7.78-22.52h5.96l-10.91,29.72h-5.66l-10.91-29.72Z"></path>
  <path class="cls-3" d="m1390.24,183.6c0-5.72,4.54-9.26,11.56-9.26h6.19c1.36,0,2-.71,2-1.77,0-3.6-2.59-6.07-7.19-6.07-4.13,0-7.13,2.59-7.31,5.6h-5.31c.47-5.84,5.78-10.2,12.79-10.2,7.67,0,12.74,4.42,12.74,11.03v19.16h-5.72v-4.83c-1.42,3.24-5.19,5.31-9.67,5.31-6.07,0-10.08-3.66-10.08-8.96Zm11.2,4.42c5.42,0,8.55-3.48,8.55-8.96v-.71h-7.67c-3.89,0-6.43,2-6.43,5.13,0,2.71,2.24,4.54,5.54,4.54Z"></path>
  <path class="cls-3" d="m1423.31,149.93h6.37v7.19h-6.37v-7.19Zm.35,12.44h5.72v29.72h-5.72v-29.72Z"></path>
  <path class="cls-3" d="m1437.7,149.93h5.72v42.16h-5.72v-42.16Z"></path>
  <path class="cls-3" d="m1450.38,183.6c0-5.72,4.54-9.26,11.56-9.26h6.19c1.36,0,2-.71,2-1.77,0-3.6-2.59-6.07-7.19-6.07-4.13,0-7.13,2.59-7.31,5.6h-5.31c.47-5.84,5.78-10.2,12.79-10.2,7.66,0,12.74,4.42,12.74,11.03v19.16h-5.72v-4.83c-1.42,3.24-5.19,5.31-9.67,5.31-6.07,0-10.08-3.66-10.08-8.96Zm11.2,4.42c5.42,0,8.55-3.48,8.55-8.96v-.71h-7.66c-3.89,0-6.43,2-6.43,5.13,0,2.71,2.24,4.54,5.54,4.54Z"></path>
  <path class="cls-3" d="m1489.53,187.67v4.42h-5.72v-42.16h5.72v16.8c1.71-2.89,5.31-4.83,9.38-4.83,9.08,0,14.21,6.49,14.21,15.33s-5.13,15.33-14.27,15.33c-3.95,0-7.61-1.95-9.32-4.89Zm8.67-.12c5.48,0,9.14-4.13,9.14-10.32s-3.66-10.32-9.14-10.32-9.14,4.13-9.14,10.32,3.6,10.32,9.14,10.32Z"></path>
  <path class="cls-3" d="m1519.24,149.93h6.37v7.19h-6.37v-7.19Zm.35,12.44h5.72v29.72h-5.72v-29.72Z"></path>
  <path class="cls-3" d="m1533.63,149.93h5.72v42.16h-5.72v-42.16Z"></path>
  <path class="cls-3" d="m1547.31,149.93h6.37v7.19h-6.37v-7.19Zm.35,12.44h5.72v29.72h-5.72v-29.72Z"></path>
  <path class="cls-3" d="m1569.95,153.06v9.32h8.79v4.95h-8.79v14.86c0,3.18,1.77,4.95,4.6,4.95h4.19v4.95h-4.6c-6.01,0-9.91-3.66-9.91-9.73v-15.03h-6.07v-4.95h6.07v-9.32h5.72Z"></path>
  <path class="cls-3" d="m1592.12,192.38l-11.03-30.01h5.9l7.84,22.29,7.78-22.29h5.95l-9.43,25.71-5.48,16.04h-5.48l3.95-11.73Z"></path>
  <path class="cls-3" d="m1621.89,174.52c0,8.73-2.83,18.1-7.78,25.35h-5.48c4.72-7.84,7.49-16.98,7.49-25.35s-2.77-17.51-7.49-25.35h5.48c4.95,7.25,7.78,16.63,7.78,25.35Z"></path>
  <rect class="cls-4" x="554.64" y="281.89" width="810.72" height="621.99" rx="20" ry="20"></rect>
  <line class="cls-4" x1="960" y1="903.87" x2="960" y2="281.88"></line>
  <line class="cls-4" x1="554.64" y1="570.79" x2="1365.36" y2="570.79"></line>
  <line class="cls-4" x1="554.64" y1="681.82" x2="1365.36" y2="681.82"></line>
  <path class="cls-1" d="m678.95,365.15v-21.22h6.72v21.22c0,4.42,2.78,6.48,6.67,6.48s6.67-2.06,6.67-6.48v-21.22h6.72v21.22c0,8.5-5.47,12.77-13.39,12.77s-13.39-4.27-13.39-12.77Z"></path>
  <path class="cls-1" d="m710.82,353.34h6.67v2.64c1.44-1.87,3.79-3.02,6.91-3.02,6.82,0,11.14,4.94,11.14,12.48s-4.7,12.48-11.67,12.48c-2.74,0-5.09-.91-6.38-2.54v11.95h-6.67v-33.99Zm12.19,18.82c3.55,0,5.9-2.69,5.9-6.72s-2.35-6.77-5.9-6.77-5.9,2.69-5.9,6.77,2.35,6.72,5.9,6.72Z"></path>
  <path class="cls-1" d="m748.41,346.19v7.15h6.48v5.57h-6.48v9.55c0,2.35,1.2,3.46,3.36,3.46h3.12v5.62h-3.98c-5.57,0-9.22-3.17-9.22-8.78v-9.84h-4.61v-5.57h4.61v-7.15h6.72Z"></path>
  <path class="cls-1" d="m758.58,342.83h7.1v7.06h-7.1v-7.06Zm.19,10.51h6.67v24.19h-6.67v-24.19Z"></path>
  <path class="cls-1" d="m770.92,353.34h6.67v3.41c1.3-2.21,3.6-3.79,6.86-3.79,3.79,0,6.24,1.54,7.39,4.42,1.2-2.35,4.22-4.42,8.11-4.42,5.23,0,8.64,3.89,8.64,8.74v15.84h-6.67v-13.73c0-3.12-1.68-5.18-4.27-5.18-2.78,0-4.56,2.06-4.56,5.18v13.73h-6.67v-13.73c0-3.12-1.68-5.18-4.27-5.18-2.78,0-4.56,2.06-4.56,5.18v13.73h-6.67v-24.19Z"></path>
  <path class="cls-1" d="m812.44,365.39c0-6.14,3.74-12.43,11.95-12.43s11.95,6.29,11.95,11.81c0,.91-.05,1.63-.1,2.16h-17.38c.48,3.41,2.64,5.52,6,5.52,2.69,0,4.46-1.06,4.99-3.12h6.53c-.96,5.23-5.57,8.59-11.52,8.59-8.21,0-12.43-6.43-12.43-12.53Zm17.23-2.69c-.19-2.69-2.06-4.85-5.28-4.85-3.02,0-4.85,1.49-5.42,4.85h10.7Z"></path>
  <path class="cls-1" d="m1051.95,319.93h11.28c9.26,0,17.38,5.33,17.38,16.8s-8.11,16.8-17.38,16.8h-11.28v-33.6Zm10.56,27.36c5.52,0,10.8-2.64,10.8-10.56s-5.28-10.61-10.8-10.61h-3.36v21.17h3.36Z"></path>
  <path class="cls-1" d="m1083.44,341.43c0-7.2,5.33-12.48,12.77-12.48s12.77,5.28,12.77,12.48-5.33,12.48-12.77,12.48-12.77-5.28-12.77-12.48Zm12.77,6.72c3.6,0,6.05-2.74,6.05-6.72s-2.45-6.77-6.05-6.77-6.05,2.74-6.05,6.77,2.45,6.72,6.05,6.72Z"></path>
  <path class="cls-1" d="m1110.08,329.34h6.72l4.13,14.93,4.27-14.93h6.1l4.27,14.93,4.08-14.93h6.72l-7.87,24.19h-5.86l-4.37-15.07-4.46,15.07h-5.86l-7.87-24.19Z"></path>
  <path class="cls-1" d="m1149.44,329.34h6.67v3.36c1.34-2.35,4.03-3.74,7.39-3.74,5.42,0,8.98,3.94,8.98,9.5v15.07h-6.72v-13.58c0-2.93-1.87-5.04-4.66-5.04-2.93,0-4.99,2.26-4.99,5.38v13.25h-6.67v-24.19Z"></path>
  <path class="cls-1" d="m1186.4,322.19v7.15h6.48v5.57h-6.48v9.55c0,2.35,1.2,3.46,3.36,3.46h3.12v5.62h-3.98c-5.57,0-9.22-3.17-9.22-8.78v-9.84h-4.61v-5.57h4.61v-7.15h6.72Z"></path>
  <path class="cls-1" d="m1196.58,318.83h7.1v7.06h-7.1v-7.06Zm.19,10.51h6.67v24.19h-6.67v-24.19Z"></path>
  <path class="cls-1" d="m1208.91,329.34h6.67v3.41c1.3-2.21,3.6-3.79,6.87-3.79,3.79,0,6.24,1.54,7.39,4.42,1.2-2.35,4.22-4.42,8.11-4.42,5.23,0,8.64,3.89,8.64,8.74v15.84h-6.67v-13.73c0-3.12-1.68-5.18-4.27-5.18-2.79,0-4.56,2.06-4.56,5.18v13.73h-6.67v-13.73c0-3.12-1.68-5.18-4.27-5.18-2.78,0-4.56,2.06-4.56,5.18v13.73h-6.67v-24.19Z"></path>
  <path class="cls-1" d="m1250.43,341.39c0-6.14,3.74-12.43,11.95-12.43s11.95,6.29,11.95,11.81c0,.91-.05,1.63-.1,2.16h-17.38c.48,3.41,2.64,5.52,6,5.52,2.69,0,4.46-1.06,4.99-3.12h6.53c-.96,5.23-5.57,8.59-11.52,8.59-8.21,0-12.43-6.43-12.43-12.53Zm17.23-2.69c-.19-2.69-2.06-4.85-5.28-4.85-3.03,0-4.85,1.49-5.42,4.85h10.7Z"></path>
  <path class="cls-1" d="m1076.91,377.34h6.67v2.64c1.44-1.87,3.79-3.02,6.91-3.02,6.82,0,11.14,4.94,11.14,12.48s-4.71,12.48-11.67,12.48c-2.74,0-5.09-.91-6.38-2.54v11.95h-6.67v-33.99Zm12.19,18.82c3.55,0,5.9-2.69,5.9-6.72s-2.35-6.77-5.9-6.77-5.9,2.69-5.9,6.77,2.35,6.72,5.9,6.72Z"></path>
  <path class="cls-1" d="m1104.51,389.39c0-6.14,3.74-12.43,11.95-12.43s11.95,6.29,11.95,11.81c0,.91-.05,1.63-.1,2.16h-17.38c.48,3.41,2.64,5.52,6,5.52,2.69,0,4.46-1.06,4.99-3.12h6.53c-.96,5.23-5.57,8.59-11.52,8.59-8.21,0-12.43-6.43-12.43-12.53Zm17.23-2.69c-.19-2.69-2.06-4.85-5.28-4.85-3.02,0-4.85,1.49-5.42,4.85h10.71Z"></path>
  <path class="cls-1" d="m1139.36,389.77v11.76h-6.67v-24.19h6.67v4.03c1.3-3.02,3.12-4.03,6.1-4.03h2.69v5.57h-3.98c-3.31,0-4.8,2.74-4.8,6.86Z"></path>
  <path class="cls-1" d="m1165.86,401.29l-8.78-23.95h6.82l5.09,15.6,5.04-15.6h6.86l-7.25,19.78-4.99,14.21h-6.38l3.6-10.03Z"></path>
  <path class="cls-1" d="m1181.7,389.39c0-6.14,3.74-12.43,11.95-12.43s11.95,6.29,11.95,11.81c0,.91-.05,1.63-.1,2.16h-17.38c.48,3.41,2.64,5.52,6,5.52,2.69,0,4.46-1.06,4.99-3.12h6.53c-.96,5.23-5.57,8.59-11.52,8.59-8.21,0-12.43-6.43-12.43-12.53Zm17.23-2.69c-.19-2.69-2.06-4.85-5.28-4.85-3.02,0-4.85,1.49-5.42,4.85h10.7Z"></path>
  <path class="cls-1" d="m1208.86,394.67c0-4.75,3.55-7.63,8.88-7.63h4.03c1.2,0,1.82-.77,1.82-1.78,0-2.02-1.54-3.41-4.27-3.41-2.93,0-4.46,1.82-4.51,3.84h-5.95c.24-4.85,4.18-8.74,10.8-8.74,6.14,0,10.61,3.55,10.61,9.02v15.55h-6.67v-3.36c-.82,2.26-3.5,3.74-6.82,3.74-4.66,0-7.92-3.12-7.92-7.25Zm9.65,2.4c3.22,0,5.09-2.4,5.09-5.47v-.34h-4.85c-2.06,0-3.46,1.25-3.46,3.12,0,1.58,1.34,2.69,3.22,2.69Z"></path>
  <path class="cls-1" d="m1242.13,389.77v11.76h-6.67v-24.19h6.67v4.03c1.3-3.02,3.12-4.03,6.1-4.03h2.69v5.57h-3.98c-3.31,0-4.8,2.74-4.8,6.86Z"></path>
  <path d="m598.48,507.26c0-6.53,5.42-11.47,12.43-11.47,8.4,0,13.06,6.82,13.06,15.99,0,11.76-5.57,18.39-13.59,18.39-6.91,0-11.57-4.18-12.29-9.55h5.95c.53,2.5,2.88,4.27,6.14,4.27,4.51,0,7.58-4.42,7.87-10.32-1.39,2.35-4.75,4.03-7.82,4.03-7.01,0-11.76-4.9-11.76-11.33Zm12.34,5.9c3.6,0,6.05-2.45,6.05-5.9s-2.45-5.95-6.05-5.95-5.95,2.45-5.95,5.95,2.4,5.9,5.95,5.9Z"></path>
  <path d="m628.24,507.26c0-6.53,5.42-11.47,12.43-11.47,8.4,0,13.06,6.82,13.06,15.99,0,11.76-5.57,18.39-13.59,18.39-6.91,0-11.57-4.18-12.29-9.55h5.95c.53,2.5,2.88,4.27,6.14,4.27,4.51,0,7.58-4.42,7.87-10.32-1.39,2.35-4.75,4.03-7.82,4.03-7.01,0-11.76-4.9-11.76-11.33Zm12.34,5.9c3.6,0,6.05-2.45,6.05-5.9s-2.45-5.95-6.05-5.95-5.95,2.45-5.95,5.95,2.4,5.9,5.95,5.9Z"></path>
  <path d="m663.23,523.58v6.19h-6.43v-6.19h6.43Z"></path>
  <path d="m667.6,507.26c0-6.53,5.42-11.47,12.43-11.47,8.4,0,13.06,6.82,13.06,15.99,0,11.76-5.57,18.39-13.59,18.39-6.91,0-11.57-4.18-12.29-9.55h5.95c.53,2.5,2.88,4.27,6.14,4.27,4.51,0,7.58-4.42,7.87-10.32-1.39,2.35-4.75,4.03-7.82,4.03-7.01,0-11.76-4.9-11.76-11.33Zm12.34,5.9c3.6,0,6.05-2.45,6.05-5.9s-2.45-5.95-6.05-5.95-5.95,2.45-5.95,5.95,2.4,5.9,5.95,5.9Z"></path>
  <path d="m703.69,495.79c4.32,0,7.3,3.36,7.3,7.68s-2.98,7.68-7.3,7.68-7.34-3.36-7.34-7.68,3.02-7.68,7.34-7.68Zm17.91.38h5.23l-24.39,33.6h-5.23l24.39-33.6Zm-17.91,11.14c1.92,0,3.22-1.63,3.22-3.84s-1.3-3.84-3.22-3.84-3.17,1.63-3.17,3.84,1.25,3.84,3.17,3.84Zm16.71,7.49c4.32,0,7.3,3.36,7.3,7.68s-2.98,7.68-7.3,7.68-7.34-3.36-7.34-7.68,3.02-7.68,7.34-7.68Zm0,11.52c1.92,0,3.22-1.63,3.22-3.84s-1.3-3.84-3.22-3.84-3.17,1.63-3.17,3.84,1.25,3.84,3.17,3.84Z"></path>
  <path d="m598.48,618.29c0-6.53,5.42-11.47,12.43-11.47,8.4,0,13.06,6.82,13.06,15.99,0,11.76-5.57,18.39-13.59,18.39-6.91,0-11.57-4.18-12.29-9.55h5.95c.53,2.5,2.88,4.27,6.14,4.27,4.51,0,7.58-4.42,7.87-10.32-1.39,2.35-4.75,4.03-7.82,4.03-7.01,0-11.76-4.9-11.76-11.33Zm12.34,5.9c3.6,0,6.05-2.45,6.05-5.9s-2.45-5.95-6.05-5.95-5.95,2.45-5.95,5.95,2.4,5.9,5.95,5.9Z"></path>
  <path d="m628.24,618.29c0-6.53,5.42-11.47,12.43-11.47,8.4,0,13.06,6.82,13.06,15.99,0,11.76-5.57,18.39-13.59,18.39-6.91,0-11.57-4.18-12.29-9.55h5.95c.53,2.5,2.88,4.27,6.14,4.27,4.51,0,7.58-4.42,7.87-10.32-1.39,2.35-4.75,4.03-7.82,4.03-7.01,0-11.76-4.9-11.76-11.33Zm12.34,5.9c3.6,0,6.05-2.45,6.05-5.9s-2.45-5.95-6.05-5.95-5.95,2.45-5.95,5.95,2.4,5.9,5.95,5.9Z"></path>
  <path d="m663.23,634.61v6.19h-6.43v-6.19h6.43Z"></path>
  <path d="m667.6,618.29c0-6.53,5.42-11.47,12.43-11.47,8.4,0,13.06,6.82,13.06,15.99,0,11.76-5.57,18.39-13.59,18.39-6.91,0-11.57-4.18-12.29-9.55h5.95c.53,2.5,2.88,4.27,6.14,4.27,4.51,0,7.58-4.42,7.87-10.32-1.39,2.35-4.75,4.03-7.82,4.03-7.01,0-11.76-4.9-11.76-11.33Zm12.34,5.9c3.6,0,6.05-2.45,6.05-5.9s-2.45-5.95-6.05-5.95-5.95,2.45-5.95,5.95,2.4,5.9,5.95,5.9Z"></path>
  <path d="m697.36,618.29c0-6.53,5.42-11.47,12.43-11.47,8.4,0,13.06,6.82,13.06,15.99,0,11.76-5.57,18.39-13.59,18.39-6.91,0-11.57-4.18-12.29-9.55h5.95c.53,2.5,2.88,4.27,6.14,4.27,4.51,0,7.58-4.42,7.87-10.32-1.39,2.35-4.75,4.03-7.82,4.03-7.01,0-11.76-4.9-11.76-11.33Zm12.34,5.9c3.6,0,6.05-2.45,6.05-5.9s-2.45-5.95-6.05-5.95-5.95,2.45-5.95,5.95,2.4,5.9,5.95,5.9Z"></path>
  <path d="m733.45,606.81c4.32,0,7.3,3.36,7.3,7.68s-2.98,7.68-7.3,7.68-7.34-3.36-7.34-7.68,3.02-7.68,7.34-7.68Zm17.91.38h5.23l-24.39,33.6h-5.23l24.39-33.6Zm-17.91,11.14c1.92,0,3.22-1.63,3.22-3.84s-1.3-3.84-3.22-3.84-3.17,1.63-3.17,3.84,1.25,3.84,3.17,3.84Zm16.71,7.49c4.32,0,7.3,3.36,7.3,7.68s-2.98,7.68-7.3,7.68-7.34-3.36-7.34-7.68,3.02-7.68,7.34-7.68Zm0,11.52c1.92,0,3.22-1.63,3.22-3.84s-1.3-3.84-3.22-3.84-3.17,1.63-3.17,3.84,1.25,3.84,3.17,3.84Z"></path>
  <path d="m598.48,729.32c0-6.53,5.42-11.47,12.43-11.47,8.4,0,13.06,6.82,13.06,15.99,0,11.76-5.57,18.39-13.59,18.39-6.91,0-11.57-4.18-12.29-9.55h5.95c.53,2.5,2.88,4.27,6.14,4.27,4.51,0,7.58-4.42,7.87-10.32-1.39,2.35-4.75,4.03-7.82,4.03-7.01,0-11.76-4.9-11.76-11.33Zm12.34,5.9c3.6,0,6.05-2.45,6.05-5.9s-2.45-5.95-6.05-5.95-5.95,2.45-5.95,5.95,2.4,5.9,5.95,5.9Z"></path>
  <path d="m628.24,729.32c0-6.53,5.42-11.47,12.43-11.47,8.4,0,13.06,6.82,13.06,15.99,0,11.76-5.57,18.39-13.59,18.39-6.91,0-11.57-4.18-12.29-9.55h5.95c.53,2.5,2.88,4.27,6.14,4.27,4.51,0,7.58-4.42,7.87-10.32-1.39,2.35-4.75,4.03-7.82,4.03-7.01,0-11.76-4.9-11.76-11.33Zm12.34,5.9c3.6,0,6.05-2.45,6.05-5.9s-2.45-5.95-6.05-5.95-5.95,2.45-5.95,5.95,2.4,5.9,5.95,5.9Z"></path>
  <path d="m663.23,745.64v6.19h-6.43v-6.19h6.43Z"></path>
  <path d="m667.6,729.32c0-6.53,5.42-11.47,12.43-11.47,8.4,0,13.06,6.82,13.06,15.99,0,11.76-5.57,18.39-13.59,18.39-6.91,0-11.57-4.18-12.29-9.55h5.95c.53,2.5,2.88,4.27,6.14,4.27,4.51,0,7.58-4.42,7.87-10.32-1.39,2.35-4.75,4.03-7.82,4.03-7.01,0-11.76-4.9-11.76-11.33Zm12.34,5.9c3.6,0,6.05-2.45,6.05-5.9s-2.45-5.95-6.05-5.95-5.95,2.45-5.95,5.95,2.4,5.9,5.95,5.9Z"></path>
  <path d="m697.36,729.32c0-6.53,5.42-11.47,12.43-11.47,8.4,0,13.06,6.82,13.06,15.99,0,11.76-5.57,18.39-13.59,18.39-6.91,0-11.57-4.18-12.29-9.55h5.95c.53,2.5,2.88,4.27,6.14,4.27,4.51,0,7.58-4.42,7.87-10.32-1.39,2.35-4.75,4.03-7.82,4.03-7.01,0-11.76-4.9-11.76-11.33Zm12.34,5.9c3.6,0,6.05-2.45,6.05-5.9s-2.45-5.95-6.05-5.95-5.95,2.45-5.95,5.95,2.4,5.9,5.95,5.9Z"></path>
  <path d="m727.12,729.32c0-6.53,5.42-11.47,12.43-11.47,8.4,0,13.06,6.82,13.06,15.99,0,11.76-5.57,18.39-13.59,18.39-6.91,0-11.57-4.18-12.29-9.55h5.95c.53,2.5,2.88,4.27,6.14,4.27,4.51,0,7.58-4.42,7.87-10.32-1.39,2.35-4.75,4.03-7.82,4.03-7.01,0-11.76-4.9-11.76-11.33Zm12.34,5.9c3.6,0,6.05-2.45,6.05-5.9s-2.45-5.95-6.05-5.95-5.95,2.45-5.95,5.95,2.4,5.9,5.95,5.9Z"></path>
  <path d="m763.21,717.85c4.32,0,7.3,3.36,7.3,7.68s-2.98,7.68-7.3,7.68-7.34-3.36-7.34-7.68,3.02-7.68,7.34-7.68Zm17.91.38h5.23l-24.39,33.6h-5.23l24.39-33.6Zm-17.91,11.14c1.92,0,3.22-1.63,3.22-3.84s-1.3-3.84-3.22-3.84-3.17,1.63-3.17,3.84,1.25,3.84,3.17,3.84Zm16.71,7.49c4.32,0,7.3,3.36,7.3,7.68s-2.98,7.68-7.3,7.68-7.34-3.36-7.34-7.68,3.02-7.68,7.34-7.68Zm0,11.52c1.92,0,3.22-1.63,3.22-3.84s-1.3-3.84-3.22-3.84-3.17,1.63-3.17,3.84,1.25,3.84,3.17,3.84Z"></path>
  <path d="m1001.87,519.93c0-3.94,2.4-6.86,5.66-8.26-2.4-1.44-4.22-3.89-4.22-6.86,0-5.28,4.56-9.02,11.09-9.02s11.09,3.74,11.09,9.02c0,2.98-1.82,5.42-4.37,6.86,3.41,1.39,5.76,4.32,5.76,8.26,0,6.29-5.47,10.23-12.48,10.23s-12.53-3.94-12.53-10.23Zm12.53,4.75c3.79,0,6.24-1.82,6.24-4.9s-2.45-4.94-6.24-4.94-6.34,1.92-6.34,4.94,2.5,4.9,6.34,4.9Zm0-15.51c3.12,0,5.14-1.58,5.14-4.13s-2.02-4.13-5.14-4.13-5.18,1.58-5.18,4.13,2.02,4.13,5.18,4.13Z"></path>
  <path d="m1037.34,523.58v6.19h-6.43v-6.19h6.43Z"></path>
  <path d="m1048.87,512.97l7.15-11.33h-17.71v-5.47h24.72v4.99l-8.79,13.92c-3.12,4.99-3.84,9.17-3.89,14.69h-6.34c.05-5.9,1.01-10.66,4.85-16.8Z"></path>
  <path d="m1090.72,518.69c0,6.53-5.42,11.47-12.43,11.47-8.4,0-13.06-6.82-13.06-15.99,0-11.76,5.57-18.39,13.59-18.39,6.91,0,11.57,4.18,12.29,9.55h-5.95c-.53-2.5-2.88-4.27-6.14-4.27-4.51,0-7.58,4.42-7.87,10.32,1.39-2.35,4.75-4.03,7.82-4.03,7.01,0,11.76,4.9,11.76,11.33Zm-12.34,5.95c3.55,0,5.95-2.45,5.95-5.95s-2.4-5.9-5.95-5.9-6.05,2.45-6.05,5.9,2.45,5.95,6.05,5.95Z"></path>
  <path d="m1106.42,495.21h5.9v14.11c1.3-2.64,4.08-4.13,7.54-4.13,5.42,0,8.98,3.94,8.98,9.6v14.98h-5.86v-13.73c0-3.31-2.06-5.62-5.09-5.62-3.26,0-5.57,2.59-5.57,6.14v13.2h-5.9v-34.56Z"></path>
  <path d="m1140.45,518.35v11.42h-5.9v-24.19h5.9v4.27c1.2-3.07,3.07-4.27,6.19-4.27h2.83v4.94h-3.79c-3.79,0-5.23,3.22-5.23,7.82Z"></path>
  <path d="m1150.82,521.71h5.38c.24,2.3,2.06,3.74,4.7,3.74,2.3,0,3.79-1.15,3.79-2.59,0-5.38-13.2-.24-13.2-10.46,0-4.22,3.7-7.2,8.64-7.2,5.71,0,9.6,3.12,9.84,7.82h-5.42c-.29-2.26-2.35-3.41-4.27-3.41-2.06,0-3.46.96-3.46,2.59,0,5.23,13.39-.53,13.39,10.42,0,4.56-3.7,7.54-9.31,7.54s-9.79-3.26-10.08-8.45Z"></path>
  <path d="m1001.68,630.91h6c.43,3.02,2.54,4.75,5.81,4.75,3.84,0,6.34-2.3,6.34-6.05s-2.5-6.19-6.29-6.19c-2.83,0-4.8,1.06-5.81,2.98h-5.42l2.74-19.2h18.87v5.47h-14.16l-1.15,7.58c1.3-1.15,3.41-2.11,6.14-2.11,6.62,0,11.47,4.94,11.47,11.47s-5.42,11.57-12.72,11.57c-6.48,0-11.43-4.42-11.81-10.27Z"></path>
  <path d="m1055.35,629.71c0,6.53-5.42,11.47-12.43,11.47-8.4,0-13.06-6.82-13.06-15.99,0-11.76,5.57-18.38,13.58-18.38,6.91,0,11.57,4.18,12.29,9.55h-5.95c-.53-2.5-2.88-4.27-6.14-4.27-4.51,0-7.58,4.42-7.87,10.32,1.39-2.35,4.75-4.03,7.82-4.03,7.01,0,11.76,4.9,11.76,11.33Zm-12.34,5.95c3.55,0,5.95-2.45,5.95-5.95s-2.4-5.9-5.95-5.9-6.05,2.45-6.05,5.9,2.45,5.95,6.05,5.95Z"></path>
  <path d="m1066.05,634.61v6.19h-6.43v-6.19h6.43Z"></path>
  <path d="m1082.66,606.81c6.96,0,11.76,4.13,11.76,10.42,0,4.51-2.69,8.11-8.02,10.75l-5.14,2.59c-1.97,1.01-4.27,2.64-4.27,4.7h17.38v5.52h-23.57l-.05-4.66c-.05-5.42,4.51-8.98,7.73-10.56l5.38-2.69c2.78-1.34,4.18-3.26,4.18-5.71,0-3.12-2.11-5.14-5.38-5.14-3.55,0-5.62,2.74-5.47,6.82h-6.38c-.14-7.44,4.51-12.05,11.86-12.05Z"></path>
  <path d="m1110.01,616.61h5.9v3.79c1.15-2.45,3.6-4.18,6.96-4.18,3.84,0,6.48,1.63,7.58,4.61,1.1-2.5,4.18-4.61,8.02-4.61,5.23,0,8.59,3.79,8.59,8.93v15.65h-5.91v-13.87c0-3.41-1.78-5.66-4.61-5.66-3.12,0-5.09,2.26-5.09,5.66v13.87h-5.86v-13.87c0-3.41-1.78-5.66-4.61-5.66-3.17,0-5.09,2.26-5.09,5.66v13.87h-5.9v-24.19Z"></path>
  <path d="m1152.54,606.24h6.34v6.58h-6.34v-6.58Zm.19,10.37h5.9v24.19h-5.9v-24.19Z"></path>
  <path d="m1164.59,616.61h5.91v3.74c1.3-2.64,4.08-4.13,7.54-4.13,5.42,0,8.98,3.94,8.98,9.6v14.98h-5.86v-13.73c0-3.31-2.06-5.62-5.09-5.62-3.26,0-5.57,2.59-5.57,6.14v13.2h-5.91v-24.19Z"></path>
  <path d="m1191.09,632.74h5.38c.24,2.3,2.06,3.74,4.7,3.74,2.3,0,3.79-1.15,3.79-2.59,0-5.38-13.2-.24-13.2-10.46,0-4.22,3.7-7.2,8.64-7.2,5.71,0,9.6,3.12,9.84,7.83h-5.42c-.29-2.26-2.35-3.41-4.27-3.41-2.06,0-3.46.96-3.46,2.59,0,5.23,13.39-.53,13.39,10.42,0,4.56-3.7,7.54-9.31,7.54s-9.79-3.26-10.08-8.45Z"></path>
  <path d="m1001.68,741.94h6c.43,3.02,2.54,4.75,5.81,4.75,3.84,0,6.34-2.3,6.34-6.05s-2.5-6.19-6.29-6.19c-2.83,0-4.8,1.06-5.81,2.98h-5.42l2.74-19.2h18.87v5.47h-14.16l-1.15,7.58c1.3-1.15,3.41-2.11,6.14-2.11,6.62,0,11.47,4.94,11.47,11.47s-5.42,11.57-12.72,11.57c-6.48,0-11.43-4.42-11.81-10.27Z"></path>
  <path d="m1036.82,745.64v6.19h-6.43v-6.19h6.43Z"></path>
  <path d="m1053.42,717.85c6.96,0,11.76,4.13,11.76,10.42,0,4.51-2.69,8.11-8.02,10.75l-5.14,2.59c-1.97,1.01-4.27,2.64-4.27,4.7h17.38v5.52h-23.57l-.05-4.66c-.05-5.42,4.51-8.98,7.73-10.56l5.38-2.69c2.78-1.34,4.18-3.26,4.18-5.71,0-3.12-2.11-5.14-5.38-5.14-3.55,0-5.62,2.74-5.47,6.82h-6.38c-.14-7.44,4.51-12.05,11.86-12.05Z"></path>
  <path d="m1068.97,741.94h6c.43,3.02,2.54,4.75,5.81,4.75,3.84,0,6.34-2.3,6.34-6.05s-2.5-6.19-6.29-6.19c-2.83,0-4.8,1.06-5.81,2.98h-5.42l2.74-19.2h18.87v5.47h-14.16l-1.15,7.58c1.3-1.15,3.41-2.11,6.14-2.11,6.62,0,11.47,4.94,11.47,11.47s-5.42,11.57-12.72,11.57c-6.48,0-11.42-4.42-11.81-10.27Z"></path>
  <path d="m1108.62,727.64h5.9v3.79c1.15-2.45,3.6-4.18,6.96-4.18,3.84,0,6.48,1.63,7.58,4.61,1.1-2.5,4.18-4.61,8.02-4.61,5.23,0,8.59,3.79,8.59,8.93v15.65h-5.91v-13.87c0-3.41-1.78-5.66-4.61-5.66-3.12,0-5.09,2.26-5.09,5.66v13.87h-5.86v-13.87c0-3.41-1.78-5.66-4.61-5.66-3.17,0-5.09,2.26-5.09,5.66v13.87h-5.9v-24.19Z"></path>
  <path d="m1151.15,717.27h6.34v6.58h-6.34v-6.58Zm.19,10.37h5.91v24.19h-5.91v-24.19Z"></path>
  <path d="m1163.2,727.64h5.9v3.74c1.3-2.64,4.08-4.13,7.54-4.13,5.42,0,8.98,3.94,8.98,9.6v14.98h-5.86v-13.73c0-3.31-2.06-5.62-5.09-5.62-3.26,0-5.57,2.59-5.57,6.14v13.2h-5.9v-24.19Z"></path>
  <path d="m1189.69,743.77h5.38c.24,2.3,2.06,3.74,4.7,3.74,2.3,0,3.79-1.15,3.79-2.59,0-5.38-13.2-.24-13.2-10.46,0-4.22,3.7-7.2,8.64-7.2,5.71,0,9.6,3.12,9.84,7.83h-5.42c-.29-2.26-2.35-3.41-4.27-3.41-2.06,0-3.46.96-3.46,2.59,0,5.23,13.39-.53,13.39,10.42,0,4.56-3.7,7.54-9.31,7.54s-9.79-3.26-10.08-8.45Z"></path>
  <path d="m1001.54,852.34h6.14c0,3.55,2.83,5.47,6.34,5.47,3.75,0,6.1-1.82,6.1-4.85s-2.35-4.71-6.1-4.71h-3.02v-5.28h2.93c3.02,0,4.94-1.82,4.94-4.37s-2.11-4.18-5.28-4.18-5.18,1.63-5.28,4.99h-6c.1-6.53,5.33-10.46,11.42-10.46,6.48,0,11.33,4.03,11.33,9.02,0,3.22-1.78,5.95-4.27,7.25,3.36,1.2,5.62,4.13,5.62,7.87,0,6.48-5.76,10.23-12.39,10.23s-12.48-4.18-12.48-10.99Z"></path>
  <path d="m1042.1,862.94h-6.34v-24.72c-.58.86-2.54,1.3-3.98,1.3h-2.59v-5.47h2.35c2.64,0,4.13-1.06,4.56-4.7h6v33.6Z"></path>
  <path d="m1054.53,856.75v6.19h-6.43v-6.19h6.43Z"></path>
  <path d="m1058.37,853.06h6c.43,3.02,2.54,4.75,5.81,4.75,3.84,0,6.34-2.3,6.34-6.05s-2.5-6.19-6.29-6.19c-2.83,0-4.8,1.06-5.81,2.98h-5.42l2.74-19.2h18.87v5.47h-14.16l-1.15,7.58c1.3-1.15,3.41-2.11,6.14-2.11,6.62,0,11.47,4.94,11.47,11.47s-5.42,11.57-12.72,11.57c-6.48,0-11.43-4.42-11.81-10.27Z"></path>
  <path d="m1112.03,851.86c0,6.53-5.42,11.47-12.43,11.47-8.4,0-13.06-6.82-13.06-15.99,0-11.76,5.57-18.38,13.58-18.38,6.91,0,11.57,4.18,12.29,9.55h-5.95c-.53-2.5-2.88-4.27-6.14-4.27-4.51,0-7.58,4.42-7.87,10.32,1.39-2.35,4.75-4.03,7.82-4.03,7.01,0,11.76,4.9,11.76,11.33Zm-12.34,5.95c3.55,0,5.95-2.45,5.95-5.95s-2.4-5.9-5.95-5.9-6.05,2.45-6.05,5.9,2.45,5.95,6.05,5.95Z"></path>
  <path d="m1126.09,854.88h5.38c.24,2.3,2.06,3.74,4.7,3.74,2.3,0,3.79-1.15,3.79-2.59,0-5.38-13.2-.24-13.2-10.46,0-4.22,3.7-7.2,8.64-7.2,5.71,0,9.6,3.12,9.84,7.83h-5.42c-.29-2.26-2.35-3.41-4.27-3.41-2.06,0-3.46.96-3.46,2.59,0,5.23,13.39-.53,13.39,10.42,0,4.56-3.7,7.54-9.31,7.54s-9.79-3.26-10.08-8.45Z"></path>
  <path d="m1148.65,850.75c0-6.38,3.94-12.39,11.86-12.39s11.76,5.9,11.76,11.67c0,.82-.05,1.54-.1,2.02h-17.86c.43,3.89,2.93,6.38,6.67,6.38,3.02,0,4.99-1.25,5.62-3.55h5.76c-.91,5.14-5.42,8.45-11.38,8.45-7.92,0-12.34-6.24-12.34-12.58Zm17.71-2.59c-.24-3.07-2.35-5.38-5.86-5.38-3.31,0-5.42,1.73-6.05,5.38h11.91Z"></path>
  <path d="m1175.58,850.85c0-6.91,4.71-12.48,12.29-12.48,6.05,0,11.04,3.65,11.57,9.22h-5.9c-.38-2.4-2.74-4.13-5.52-4.13-4.13,0-6.34,3.17-6.34,7.39s2.26,7.39,6.38,7.39c2.83,0,4.94-1.58,5.57-3.98h5.9c-.72,5.28-5.47,9.07-11.67,9.07-7.58,0-12.29-5.57-12.29-12.48Z"></path>
  <path d="m1202.17,854.88h5.38c.24,2.3,2.06,3.74,4.7,3.74,2.3,0,3.79-1.15,3.79-2.59,0-5.38-13.2-.24-13.2-10.46,0-4.22,3.7-7.2,8.64-7.2,5.71,0,9.6,3.12,9.84,7.83h-5.42c-.29-2.26-2.35-3.41-4.27-3.41-2.06,0-3.46.96-3.46,2.59,0,5.23,13.39-.53,13.39,10.42,0,4.56-3.7,7.54-9.31,7.54s-9.79-3.26-10.08-8.45Z"></path>
</svg>
