<?xml version="1.0" encoding="UTF-8"?>
<svg xmlns="http://www.w3.org/2000/svg" id="Layer_10" viewBox="0 0 1920 1250.8">
  <defs>
    <style>.cls-1{fill:#ea5a5f;}.cls-2{fill:#fff;}.cls-3,.cls-4{fill:#735af5;}.cls-5{fill:#1e154b;}.cls-6{fill:none;stroke:#1e154b;stroke-miterlimit:10;stroke-width:4px;}.cls-4{opacity:.75;}</style>
  </defs>
  <path class="cls-3" d="m649.87,451.46c0,11.2-31.79,20.29-71,20.29s-71-9.08-71-20.29,31.79-20.29,71-20.29,71,9.08,71,20.29Z"></path>
  <path class="cls-3" d="m629.58,502.17c-3.04,0-5.07-2.03-5.07-5.07s2.03-5.07,5.07-5.07,5.07,2.03,5.07,5.07-2.03,5.07-5.07,5.07Zm-50.71-20.29c-39.05,0-71-9.13-71-20.29v40.57c0,11.16,31.95,20.29,71,20.29s71-9.13,71-20.29v-40.57c0,11.16-31.95,20.29-71,20.29Z"></path>
  <path class="cls-3" d="m629.58,552.88c-3.04,0-5.07-2.03-5.07-5.07s2.03-5.07,5.07-5.07,5.07,2.03,5.07,5.07-2.03,5.07-5.07,5.07Zm-50.71-20.29c-39.05,0-71-9.13-71-20.29v40.57c0,11.16,31.95,20.29,71,20.29s71-9.13,71-20.29v-40.57c0,11.16-31.95,20.29-71,20.29Z"></path>
  <path class="cls-3" d="m629.58,603.6c-3.04,0-5.07-2.03-5.07-5.07s2.03-5.07,5.07-5.07,5.07,2.03,5.07,5.07-2.03,5.07-5.07,5.07Zm-50.71-20.29c-39.05,0-71-9.13-71-20.29v40.57c0,11.16,31.95,20.29,71,20.29s71-9.13,71-20.29v-40.57c0,11.16-31.95,20.29-71,20.29Z"></path>
  <path class="cls-1" d="m1163.4,451.46c0,11.2-31.79,20.29-71,20.29s-71-9.08-71-20.29,31.79-20.29,71-20.29,71,9.08,71,20.29Z"></path>
  <path class="cls-1" d="m1143.11,502.17c-3.04,0-5.07-2.03-5.07-5.07s2.03-5.07,5.07-5.07,5.07,2.03,5.07,5.07-2.03,5.07-5.07,5.07Zm-50.71-20.29c-39.05,0-71-9.13-71-20.29v40.57c0,11.16,31.95,20.29,71,20.29s71-9.13,71-20.29v-40.57c0,11.16-31.95,20.29-71,20.29Z"></path>
  <path class="cls-1" d="m1143.11,552.88c-3.04,0-5.07-2.03-5.07-5.07s2.03-5.07,5.07-5.07,5.07,2.03,5.07,5.07-2.03,5.07-5.07,5.07Zm-50.71-20.29c-39.05,0-71-9.13-71-20.29v40.57c0,11.16,31.95,20.29,71,20.29s71-9.13,71-20.29v-40.57c0,11.16-31.95,20.29-71,20.29Z"></path>
  <path class="cls-1" d="m1143.11,603.6c-3.04,0-5.07-2.03-5.07-5.07s2.03-5.07,5.07-5.07,5.07,2.03,5.07,5.07-2.03,5.07-5.07,5.07Zm-50.71-20.29c-39.05,0-71-9.13-71-20.29v40.57c0,11.16,31.95,20.29,71,20.29s71-9.13,71-20.29v-40.57c0,11.16-31.95,20.29-71,20.29Z"></path>
  <path class="cls-3" d="m649.87,887.54c0,11.2-31.79,20.29-71,20.29s-71-9.08-71-20.29,31.79-20.29,71-20.29,71,9.08,71,20.29Z"></path>
  <path class="cls-3" d="m629.58,938.26c-3.04,0-5.07-2.03-5.07-5.07s2.03-5.07,5.07-5.07,5.07,2.03,5.07,5.07-2.03,5.07-5.07,5.07Zm-50.71-20.29c-39.05,0-71-9.13-71-20.29v40.57c0,11.16,31.95,20.29,71,20.29s71-9.13,71-20.29v-40.57c0,11.16-31.95,20.29-71,20.29Z"></path>
  <path class="cls-3" d="m629.58,988.97c-3.04,0-5.07-2.03-5.07-5.07s2.03-5.07,5.07-5.07,5.07,2.03,5.07,5.07-2.03,5.07-5.07,5.07Zm-50.71-20.29c-39.05,0-71-9.13-71-20.29v40.57c0,11.16,31.95,20.29,71,20.29s71-9.13,71-20.29v-40.57c0,11.16-31.95,20.29-71,20.29Z"></path>
  <path class="cls-3" d="m629.58,1039.69c-3.04,0-5.07-2.03-5.07-5.07s2.03-5.07,5.07-5.07,5.07,2.03,5.07,5.07-2.03,5.07-5.07,5.07Zm-50.71-20.29c-39.05,0-71-9.13-71-20.29v40.57c0,11.16,31.95,20.29,71,20.29s71-9.13,71-20.29v-40.57c0,11.16-31.95,20.29-71,20.29Z"></path>
  <path class="cls-5" d="m240.64,107.42c11.2,0,20.28,31.79,20.28,71s-9.08,71-20.28,71-20.29-31.79-20.29-71,9.08-71,20.29-71Z"></path>
  <path class="cls-5" d="m250.78,107.42h40.57c11.16,0,20.29,31.95,20.29,71s-9.13,71-20.29,71h-40.57c11.16,0,20.28-31.95,20.28-71s-9.12-71-20.28-71Z"></path>
  <path class="cls-5" d="m417.55,107.42c11.2,0,20.28,31.79,20.28,71s-9.08,71-20.28,71-20.29-31.79-20.29-71,9.08-71,20.29-71Z"></path>
  <path class="cls-5" d="m427.69,107.42h40.57c11.16,0,20.29,31.95,20.29,71s-9.13,71-20.29,71h-40.57c11.16,0,20.28-31.95,20.28-71s-9.12-71-20.28-71Z"></path>
  <circle class="cls-4" cx="355.09" cy="178.42" r="59.14"></circle>
  <polygon class="cls-2" points="403.11 178.55 381.67 157.41 381.67 199.68 403.11 178.55"></polygon>
  <polygon class="cls-2" points="307.06 178.55 328.51 199.68 328.51 157.41 307.06 178.55"></polygon>
  <rect class="cls-2" x="323.57" y="167.12" width="63.04" height="22.84"></rect>
  <path class="cls-5" d="m549.11,116.14h8.37l15.74,41.27h-9.2l-3.24-9.02h-14.92l-3.24,9.02h-9.2l15.68-41.27Zm-.59,24.82h9.61l-4.83-13.38-4.78,13.38Z"></path>
  <path class="cls-5" d="m588.08,116.14h28.07v7.61h-19.22v9.2h15.33v7.66h-15.33v16.8h-8.84v-41.27Z"></path>
  <path class="cls-5" d="m616.5,142.49c0-7.55,4.6-15.27,14.68-15.27s14.68,7.72,14.68,14.5c0,1.12-.06,2-.12,2.65h-21.34c.59,4.19,3.24,6.78,7.37,6.78,3.3,0,5.48-1.3,6.13-3.83h8.02c-1.18,6.43-6.84,10.55-14.15,10.55-10.08,0-15.27-7.9-15.27-15.39Zm21.17-3.3c-.24-3.3-2.54-5.96-6.49-5.96-3.71,0-5.96,1.83-6.66,5.96h13.15Z"></path>
  <path class="cls-5" d="m647.46,127.69h8.25l5.07,18.34,5.25-18.34h7.49l5.25,18.34,5.01-18.34h8.25l-9.67,29.72h-7.19l-5.37-18.51-5.48,18.51h-7.19l-9.67-29.72Z"></path>
  <path class="cls-5" d="m707.83,116.14h16.92c8.84,0,13.97,5.42,13.97,13.03s-5.13,13.03-13.97,13.03h-8.02v15.21h-8.9v-41.27Zm16.45,18.69c4.07,0,5.84-2.65,5.84-5.66s-1.77-5.66-5.84-5.66h-7.55v11.32h7.55Z"></path>
  <path class="cls-5" d="m740.14,142.55c0-8.84,6.54-15.33,15.68-15.33s15.68,6.49,15.68,15.33-6.54,15.33-15.68,15.33-15.68-6.49-15.68-15.33Zm15.68,8.25c4.42,0,7.43-3.36,7.43-8.25s-3.01-8.31-7.43-8.31-7.43,3.36-7.43,8.31,3.01,8.25,7.43,8.25Z"></path>
  <path class="cls-5" d="m776.58,127.69h8.2v3.24c1.77-2.3,4.66-3.71,8.49-3.71,8.37,0,13.68,6.07,13.68,15.33s-5.78,15.33-14.33,15.33c-3.36,0-6.25-1.12-7.84-3.12v14.68h-8.2v-41.74Zm14.98,23.11c4.36,0,7.25-3.3,7.25-8.25s-2.89-8.31-7.25-8.31-7.25,3.3-7.25,8.31,2.89,8.25,7.25,8.25Z"></path>
  <path class="cls-5" d="m840.08,157.41h-8.2v-4.13c-1.65,2.83-4.95,4.6-9.08,4.6-6.66,0-11.03-4.89-11.03-11.67v-18.51h8.25v16.69c0,3.6,2.3,6.19,5.72,6.19,3.6,0,6.13-2.83,6.13-6.6v-16.27h8.2v29.72Z"></path>
  <path class="cls-5" d="m846.81,114.78h8.2v42.63h-8.2v-42.63Z"></path>
  <path class="cls-5" d="m860.48,148.98c0-5.84,4.36-9.37,10.91-9.37h4.95c1.47,0,2.24-.94,2.24-2.18,0-2.48-1.89-4.19-5.25-4.19-3.6,0-5.48,2.24-5.54,4.72h-7.31c.29-5.95,5.13-10.73,13.27-10.73,7.55,0,13.03,4.36,13.03,11.08v19.1h-8.2v-4.13c-1,2.77-4.3,4.6-8.37,4.6-5.72,0-9.73-3.83-9.73-8.9Zm11.85,2.95c3.95,0,6.25-2.95,6.25-6.72v-.41h-5.96c-2.54,0-4.25,1.53-4.25,3.83,0,1.95,1.65,3.3,3.95,3.3Z"></path>
  <path class="cls-5" d="m901.34,142.96v14.45h-8.2v-29.72h8.2v4.95c1.59-3.71,3.83-4.95,7.49-4.95h3.3v6.84h-4.89c-4.07,0-5.9,3.36-5.9,8.43Z"></path>
  <path class="cls-5" d="m927.94,116.14h16.39c7.49,0,13.09,3.71,13.09,10.61,0,3.89-2.42,6.84-4.83,8.14,3.77,1.47,6.9,4.78,6.9,10.2,0,7.84-5.95,12.32-14.68,12.32h-16.86v-41.27Zm15.74,15.74c3.77,0,5.54-1.59,5.54-4.36s-1.77-4.36-5.72-4.36h-6.84v8.73h7.02Zm.35,17.86c4.89,0,7.08-1.77,7.08-5.13s-2.18-5.25-7.08-5.25h-7.37v10.38h7.37Z"></path>
  <path class="cls-5" d="m992.38,157.41h-8.2v-4.13c-1.65,2.83-4.95,4.6-9.08,4.6-6.66,0-11.03-4.89-11.03-11.67v-18.51h8.25v16.69c0,3.6,2.3,6.19,5.72,6.19,3.6,0,6.13-2.83,6.13-6.6v-16.27h8.2v29.72Z"></path>
  <path class="cls-5" d="m998.87,114.78h8.73v8.67h-8.73v-8.67Zm.24,12.91h8.2v29.72h-8.2v-29.72Z"></path>
  <path class="cls-5" d="m1014.02,114.78h8.2v42.63h-8.2v-42.63Z"></path>
  <path class="cls-5" d="m1040.14,118.91v8.79h7.96v6.84h-7.96v11.73c0,2.89,1.47,4.25,4.13,4.25h3.83v6.9h-4.89c-6.84,0-11.32-3.89-11.32-10.79v-12.09h-5.66v-6.84h5.66v-8.79h8.25Z"></path>
  <path class="cls-5" d="m1051.81,135.18h23.23v7.02h-23.23v-7.02Z"></path>
  <path class="cls-5" d="m1080.59,114.78h8.73v8.67h-8.73v-8.67Zm.24,12.91h8.2v29.72h-8.2v-29.72Z"></path>
  <path class="cls-5" d="m1095.74,127.69h8.2v4.13c1.65-2.89,4.95-4.6,9.08-4.6,6.66,0,11.03,4.83,11.03,11.67v18.51h-8.25v-16.69c0-3.6-2.3-6.19-5.72-6.19-3.6,0-6.13,2.77-6.13,6.6v16.27h-8.2v-29.72Z"></path>
  <path class="cls-5" d="m1143.5,116.14h17.39c8.79,0,13.91,5.42,13.91,12.97,0,4.13-2,6.96-5.19,8.61,2.65,1.83,4.36,4.72,4.72,8.31l1.12,11.38h-8.84l-1.12-10.2c-.29-2.83-2.3-4.78-5.07-4.78h-8.02v14.98h-8.9v-41.27Zm16.86,18.69c4.13,0,5.9-2.71,5.9-5.72s-1.77-5.6-5.9-5.6h-7.96v11.32h7.96Z"></path>
  <path class="cls-5" d="m1178.99,142.49c0-7.55,4.6-15.27,14.68-15.27s14.68,7.72,14.68,14.5c0,1.12-.06,2-.12,2.65h-21.34c.59,4.19,3.24,6.78,7.37,6.78,3.3,0,5.48-1.3,6.13-3.83h8.02c-1.18,6.43-6.84,10.55-14.15,10.55-10.08,0-15.27-7.9-15.27-15.39Zm21.17-3.3c-.24-3.3-2.54-5.96-6.49-5.96-3.71,0-5.96,1.83-6.66,5.96h13.15Z"></path>
  <path class="cls-5" d="m1213.6,127.69h8.2v3.24c1.77-2.3,4.66-3.71,8.49-3.71,8.37,0,13.68,6.07,13.68,15.33s-5.78,15.33-14.33,15.33c-3.36,0-6.25-1.12-7.84-3.12v14.68h-8.2v-41.74Zm14.98,23.11c4.36,0,7.25-3.3,7.25-8.25s-2.89-8.31-7.25-8.31-7.25,3.3-7.25,8.31,2.89,8.25,7.25,8.25Z"></path>
  <path class="cls-5" d="m1249.16,114.78h8.2v42.63h-8.2v-42.63Z"></path>
  <path class="cls-5" d="m1263.84,114.78h8.73v8.67h-8.73v-8.67Zm.24,12.91h8.2v29.72h-8.2v-29.72Z"></path>
  <path class="cls-5" d="m1277.4,142.55c0-8.67,6.07-15.33,15.33-15.33,7.78,0,13.97,4.72,14.5,11.62h-8.25c-.47-2.65-3.01-4.6-6.01-4.6-4.48,0-7.02,3.48-7.02,8.31s2.59,8.25,7.13,8.25c3.01,0,5.37-1.83,6.01-4.48h8.31c-.83,6.6-7.02,11.56-14.68,11.56-9.26,0-15.33-6.66-15.33-15.33Z"></path>
  <path class="cls-5" d="m1310.89,148.98c0-5.84,4.36-9.37,10.91-9.37h4.95c1.47,0,2.24-.94,2.24-2.18,0-2.48-1.89-4.19-5.25-4.19-3.6,0-5.48,2.24-5.54,4.72h-7.31c.29-5.95,5.13-10.73,13.27-10.73,7.55,0,13.03,4.36,13.03,11.08v19.1h-8.2v-4.13c-1,2.77-4.3,4.6-8.37,4.6-5.72,0-9.73-3.83-9.73-8.9Zm11.85,2.95c3.95,0,6.25-2.95,6.25-6.72v-.41h-5.95c-2.54,0-4.25,1.53-4.25,3.83,0,1.95,1.65,3.3,3.95,3.3Z"></path>
  <path class="cls-5" d="m1354.28,118.91v8.79h7.96v6.84h-7.96v11.73c0,2.89,1.47,4.25,4.13,4.25h3.83v6.9h-4.89c-6.84,0-11.32-3.89-11.32-10.79v-12.09h-5.66v-6.84h5.66v-8.79h8.25Z"></path>
  <path class="cls-5" d="m1366.78,114.78h8.73v8.67h-8.73v-8.67Zm.24,12.91h8.2v29.72h-8.2v-29.72Z"></path>
  <path class="cls-5" d="m1380.28,142.55c0-8.84,6.54-15.33,15.68-15.33s15.68,6.49,15.68,15.33-6.54,15.33-15.68,15.33-15.68-6.49-15.68-15.33Zm15.68,8.25c4.42,0,7.43-3.36,7.43-8.25s-3.01-8.31-7.43-8.31-7.43,3.36-7.43,8.31,3.01,8.25,7.43,8.25Z"></path>
  <path class="cls-5" d="m1416.72,127.69h8.2v4.13c1.65-2.89,4.95-4.6,9.08-4.6,6.66,0,11.03,4.83,11.03,11.67v18.51h-8.25v-16.69c0-3.6-2.3-6.19-5.72-6.19-3.6,0-6.13,2.77-6.13,6.6v16.27h-8.2v-29.72Z"></path>
  <path class="cls-5" d="m1462.24,143.38h8.49c.35,4.19,3.12,6.84,7.55,6.84,3.89,0,6.54-1.65,6.54-4.78,0-8.08-21.4-1.89-21.4-18.1,0-6.84,5.9-11.67,14.33-11.67,8.9,0,14.86,5.13,15.09,12.97h-8.37c-.35-3.24-2.83-5.37-6.72-5.37-3.54,0-5.72,1.65-5.72,4.07,0,8.61,21.7,1.65,21.7,17.98,0,7.72-6.25,12.56-15.45,12.56s-15.68-5.72-16.04-14.5Z"></path>
  <path class="cls-5" d="m1497.26,142.55c0-8.84,6.54-15.33,15.68-15.33s15.68,6.49,15.68,15.33-6.54,15.33-15.68,15.33-15.68-6.49-15.68-15.33Zm15.68,8.25c4.42,0,7.43-3.36,7.43-8.25s-3.01-8.31-7.43-8.31-7.43,3.36-7.43,8.31,3.01,8.25,7.43,8.25Z"></path>
  <path class="cls-5" d="m1533.7,114.78h8.2v42.63h-8.2v-42.63Z"></path>
  <path class="cls-5" d="m1576.57,157.41h-8.2v-4.13c-1.65,2.83-4.95,4.6-9.08,4.6-6.66,0-11.03-4.89-11.03-11.67v-18.51h8.25v16.69c0,3.6,2.3,6.19,5.72,6.19,3.6,0,6.13-2.83,6.13-6.6v-16.27h8.2v29.72Z"></path>
  <path class="cls-5" d="m1594.49,118.91v8.79h7.96v6.84h-7.96v11.73c0,2.89,1.47,4.25,4.13,4.25h3.83v6.9h-4.89c-6.84,0-11.32-3.89-11.32-10.79v-12.09h-5.66v-6.84h5.66v-8.79h8.25Z"></path>
  <path class="cls-5" d="m1606.99,114.78h8.73v8.67h-8.73v-8.67Zm.24,12.91h8.2v29.72h-8.2v-29.72Z"></path>
  <path class="cls-5" d="m1620.49,142.55c0-8.84,6.54-15.33,15.68-15.33s15.68,6.49,15.68,15.33-6.54,15.33-15.68,15.33-15.68-6.49-15.68-15.33Zm15.68,8.25c4.42,0,7.43-3.36,7.43-8.25s-3.01-8.31-7.43-8.31-7.43,3.36-7.43,8.31,3.01,8.25,7.43,8.25Z"></path>
  <path class="cls-5" d="m1656.93,127.69h8.2v4.13c1.65-2.89,4.95-4.6,9.08-4.6,6.66,0,11.03,4.83,11.03,11.67v18.51h-8.25v-16.69c0-3.6-2.3-6.19-5.72-6.19-3.6,0-6.13,2.77-6.13,6.6v16.27h-8.2v-29.72Z"></path>
  <path class="cls-5" d="m1689.77,147.38h7.08c.35,2.65,2.42,4.3,5.42,4.3,2.59,0,4.3-1.24,4.3-2.89,0-6.07-15.98-.12-15.98-12.62,0-5.25,4.6-8.96,10.67-8.96,7.13,0,11.97,3.83,12.21,9.67h-7.08c-.35-2.54-2.71-3.89-4.89-3.89-2.36,0-3.89,1-3.89,2.89,0,6.07,16.21-.83,16.21,12.62,0,5.66-4.54,9.37-11.56,9.37s-12.15-4.07-12.5-10.5Z"></path>
  <rect class="cls-6" x="51.21" y="347.64" width="1817.59" height="359.78" rx="20" ry="20"></rect>
  <rect class="cls-6" x="51.21" y="783.73" width="1817.59" height="359.78" rx="20" ry="20"></rect>
  <path class="cls-5" d="m1238.16,490.39l-4.55,2.93-1.39-2.43,4.83-2.47-4.83-2.47,1.39-2.43,4.55,2.93-.24-5.4h2.77l-.24,5.4,4.55-2.93,1.39,2.43-4.83,2.47,4.83,2.47-1.39,2.43-4.55-2.93.24,5.4h-2.77l.24-5.4Z"></path>
  <path class="cls-5" d="m1268.79,481.05h9.33c6.07,0,9.07,3.39,9.07,8.21,0,3.52-1.6,6.19-4.81,7.38l5.8,10.6h-4.5l-5.32-9.91h-5.63v9.91h-3.95v-26.19Zm8.96,12.88c3.85,0,5.46-1.71,5.46-4.67s-1.61-4.82-5.51-4.82h-4.96v9.49h5.01Z"></path>
  <path class="cls-5" d="m1290.58,497.55c0-6.04,3.61-10.2,9.08-10.2,4.45,0,8.7,2.77,8.7,9.87v1.36h-13.96c.1,3.78,2.3,5.91,5.58,5.91,2.17,0,3.84-.95,4.53-2.8l3.62.65c-.87,3.2-3.9,5.31-8.18,5.31-5.79,0-9.35-3.99-9.35-10.09Zm14.03-1.84c-.01-3-1.96-5.2-4.92-5.2s-5.13,2.42-5.28,5.2h10.2Z"></path>
  <path class="cls-5" d="m1312.6,487.6h3.73v3.18h.32c.68-1.21,1.99-3.44,5.64-3.44,4.74,0,8.25,3.75,8.25,10.11s-3.45,10.17-8.21,10.17c-3.58,0-4.99-2.19-5.68-3.44h-.23v10.42h-3.82v-27.01Zm8.87,16.76c3.41,0,5.2-3,5.2-6.94s-1.74-6.83-5.2-6.83-5.13,2.72-5.13,6.83,1.84,6.94,5.13,6.94Z"></path>
  <path class="cls-5" d="m1338.65,507.24h-3.82v-26.19h3.82v26.19Z"></path>
  <path class="cls-5" d="m1343.3,482.29c0-1.25,1.09-2.29,2.42-2.29s2.42,1.04,2.42,2.29-1.1,2.28-2.42,2.28-2.42-1.02-2.42-2.28Zm.49,5.31h3.82v19.64h-3.82v-19.64Z"></path>
  <path class="cls-5" d="m1351.86,497.51c0-6,3.58-10.17,9.12-10.17,4.46,0,7.7,2.63,8.11,6.6h-3.72c-.41-1.84-1.89-3.38-4.32-3.38-3.2,0-5.32,2.65-5.32,6.85s2.08,6.98,5.32,6.98c2.19,0,3.84-1.25,4.32-3.38h3.72c-.42,3.82-3.43,6.61-8.07,6.61-5.7,0-9.16-4.21-9.16-10.13Z"></path>
  <path class="cls-5" d="m1372.27,501.69c0-4.46,3.81-5.43,7.53-5.87,3.53-.41,4.96-.38,4.96-1.78v-.09c0-2.22-1.27-3.52-3.73-3.52s-4,1.34-4.56,2.74l-3.59-.82c1.28-3.58,4.55-5.01,8.11-5.01,3.12,0,7.62,1.14,7.62,6.85v13.04h-3.73v-2.69h-.15c-.73,1.47-2.56,3.12-5.8,3.12-3.73,0-6.64-2.12-6.64-5.98Zm12.51-1.53v-2.53c-.55.55-3.49.88-4.73,1.05-2.21.29-4.03,1.02-4.03,3.07,0,1.89,1.56,2.86,3.72,2.86,3.18,0,5.04-2.12,5.04-4.45Z"></path>
  <path class="cls-5" d="m1402.85,490.67h-4.03v10.8c0,2.21,1.11,2.62,2.35,2.62.61,0,1.09-.12,1.34-.17l.69,3.16c-.45.17-1.27.4-2.48.41-3.02.06-5.74-1.66-5.73-5.23v-11.6h-2.88v-3.07h2.88v-4.71h3.82v4.71h4.03v3.07Z"></path>
  <path class="cls-5" d="m1405.98,497.55c0-6.04,3.61-10.2,9.08-10.2,4.45,0,8.7,2.77,8.7,9.87v1.36h-13.96c.1,3.78,2.3,5.91,5.58,5.91,2.17,0,3.84-.95,4.53-2.8l3.62.65c-.87,3.2-3.9,5.31-8.18,5.31-5.79,0-9.35-3.99-9.35-10.09Zm14.03-1.84c-.01-3-1.96-5.2-4.92-5.2s-5.13,2.42-5.28,5.2h10.2Z"></path>
  <path class="cls-5" d="m1439.26,493.01c-.45-1.32-1.55-2.63-3.92-2.63-2.17,0-3.81,1.07-3.8,2.58-.01,1.33.92,2.06,3.08,2.57l3.12.72c3.61.83,5.37,2.54,5.37,5.32,0,3.55-3.29,6.07-8.03,6.07-4.41,0-7.3-1.96-7.94-5.43l3.7-.56c.46,1.93,1.93,2.92,4.22,2.92,2.51,0,4.13-1.19,4.13-2.71,0-1.23-.88-2.07-2.78-2.49l-3.32-.73c-3.68-.82-5.37-2.67-5.37-5.46,0-3.48,3.15-5.82,7.58-5.82s6.64,1.99,7.43,5.05l-3.47.61Z"></path>
  <path class="cls-5" d="m1466,490.67h-4.03v10.8c0,2.21,1.11,2.62,2.35,2.62.61,0,1.09-.12,1.34-.17l.69,3.16c-.45.17-1.27.4-2.48.41-3.02.06-5.74-1.66-5.73-5.23v-11.6h-2.88v-3.07h2.88v-4.71h3.82v4.71h4.03v3.07Z"></path>
  <path class="cls-5" d="m1474.45,507.24h-3.82v-26.19h3.77v9.74h.24c.92-2.12,2.76-3.45,5.82-3.45,4.04,0,6.73,2.51,6.73,7.4v12.49h-3.82v-12.03c0-2.88-1.57-4.55-4.21-4.55s-4.71,1.79-4.71,4.92v11.66Z"></path>
  <path class="cls-5" d="m1491.41,497.55c0-6.04,3.61-10.2,9.08-10.2,4.45,0,8.7,2.77,8.7,9.87v1.36h-13.96c.1,3.78,2.3,5.91,5.58,5.91,2.17,0,3.84-.95,4.53-2.8l3.62.65c-.87,3.2-3.9,5.31-8.18,5.31-5.79,0-9.35-3.99-9.35-10.09Zm14.03-1.84c-.01-3-1.96-5.2-4.92-5.2s-5.13,2.42-5.28,5.2h10.2Z"></path>
  <path class="cls-5" d="m1522.09,497.55c0-6.04,3.61-10.2,9.08-10.2,4.45,0,8.7,2.77,8.7,9.87v1.36h-13.96c.1,3.78,2.3,5.91,5.58,5.91,2.17,0,3.84-.95,4.53-2.8l3.62.65c-.87,3.2-3.9,5.31-8.18,5.31-5.79,0-9.35-3.99-9.35-10.09Zm14.03-1.84c-.01-3-1.96-5.2-4.92-5.2s-5.13,2.42-5.28,5.2h10.2Z"></path>
  <path class="cls-5" d="m1547.95,507.24h-3.82v-19.64h3.67v3.2h.24c.91-2.08,2.84-3.45,5.79-3.45,4.01,0,6.69,2.54,6.69,7.4v12.49h-3.82v-12.03c0-2.85-1.57-4.55-4.17-4.55s-4.58,1.79-4.58,4.92v11.66Z"></path>
  <path class="cls-5" d="m1574.79,490.67h-4.03v10.8c0,2.21,1.11,2.62,2.35,2.62.61,0,1.09-.12,1.34-.17l.69,3.16c-.45.17-1.27.4-2.48.41-3.02.06-5.74-1.66-5.73-5.23v-11.6h-2.88v-3.07h2.88v-4.71h3.82v4.71h4.03v3.07Z"></path>
  <path class="cls-5" d="m1578.52,482.29c0-1.25,1.09-2.29,2.42-2.29s2.42,1.04,2.42,2.29-1.1,2.28-2.42,2.28-2.42-1.02-2.42-2.28Zm.49,5.31h3.82v19.64h-3.82v-19.64Z"></path>
  <path class="cls-5" d="m1587.97,487.6h3.7v3.12h.2c.72-2.11,2.69-3.41,4.99-3.41.49,0,1.24.04,1.62.09v3.66c-.31-.09-1.2-.23-2-.23-2.71,0-4.69,1.85-4.69,4.42v11.99h-3.82v-19.64Z"></path>
  <path class="cls-5" d="m1600.21,497.55c0-6.04,3.61-10.2,9.08-10.2,4.45,0,8.7,2.77,8.7,9.87v1.36h-13.96c.1,3.78,2.3,5.91,5.58,5.91,2.17,0,3.84-.95,4.53-2.8l3.62.65c-.87,3.2-3.9,5.31-8.18,5.31-5.79,0-9.35-3.99-9.35-10.09Zm14.03-1.84c-.01-3-1.96-5.2-4.92-5.2s-5.13,2.42-5.28,5.2h10.2Z"></path>
  <path class="cls-5" d="m1630.91,497.46c0-6.37,3.49-10.11,8.23-10.11,3.66,0,4.96,2.23,5.65,3.44h.23v-9.73h3.82v26.19h-3.73v-3.06h-.32c-.69,1.25-2.1,3.44-5.68,3.44-4.77,0-8.21-3.81-8.21-10.17Zm14.18-.04c0-4.1-1.79-6.83-5.13-6.83s-5.19,2.93-5.19,6.83,1.78,6.94,5.19,6.94,5.13-2.81,5.13-6.94Z"></path>
  <path class="cls-5" d="m1653.37,501.69c0-4.46,3.81-5.43,7.53-5.87,3.53-.41,4.96-.38,4.96-1.78v-.09c0-2.22-1.27-3.52-3.73-3.52s-4,1.34-4.56,2.74l-3.59-.82c1.28-3.58,4.55-5.01,8.11-5.01,3.12,0,7.62,1.14,7.62,6.85v13.04h-3.73v-2.69h-.15c-.73,1.47-2.56,3.12-5.8,3.12-3.73,0-6.64-2.12-6.64-5.98Zm12.51-1.53v-2.53c-.55.55-3.49.88-4.73,1.05-2.21.29-4.03,1.02-4.03,3.07,0,1.89,1.56,2.86,3.72,2.86,3.18,0,5.04-2.12,5.04-4.45Z"></path>
  <path class="cls-5" d="m1683.96,490.67h-4.03v10.8c0,2.21,1.11,2.62,2.35,2.62.61,0,1.09-.12,1.34-.17l.69,3.16c-.45.17-1.27.4-2.48.41-3.02.06-5.74-1.66-5.73-5.23v-11.6h-2.88v-3.07h2.88v-4.71h3.82v4.71h4.03v3.07Z"></path>
  <path class="cls-5" d="m1687.25,501.69c0-4.46,3.81-5.43,7.53-5.87,3.53-.41,4.96-.38,4.96-1.78v-.09c0-2.22-1.27-3.52-3.73-3.52s-4,1.34-4.56,2.74l-3.59-.82c1.28-3.58,4.55-5.01,8.11-5.01,3.12,0,7.62,1.14,7.62,6.85v13.04h-3.73v-2.69h-.15c-.73,1.47-2.56,3.12-5.8,3.12-3.73,0-6.64-2.12-6.64-5.98Zm12.51-1.53v-2.53c-.55.55-3.49.88-4.73,1.05-2.21.29-4.03,1.02-4.03,3.07,0,1.89,1.56,2.86,3.72,2.86,3.18,0,5.04-2.12,5.04-4.45Z"></path>
  <path class="cls-5" d="m1708.97,481.05h3.82v9.73h.23c.68-1.21,1.99-3.44,5.64-3.44,4.74,0,8.25,3.75,8.25,10.11s-3.45,10.17-8.21,10.17c-3.58,0-4.99-2.19-5.68-3.44h-.32v3.06h-3.73v-26.19Zm8.87,23.31c3.41,0,5.2-3,5.2-6.94s-1.74-6.83-5.2-6.83-5.13,2.72-5.13,6.83,1.84,6.94,5.13,6.94Z"></path>
  <path class="cls-5" d="m1730.27,501.69c0-4.46,3.81-5.43,7.53-5.87,3.53-.41,4.96-.38,4.96-1.78v-.09c0-2.22-1.27-3.52-3.73-3.52s-4,1.34-4.56,2.74l-3.59-.82c1.28-3.58,4.55-5.01,8.11-5.01,3.12,0,7.62,1.14,7.62,6.85v13.04h-3.73v-2.69h-.15c-.73,1.47-2.56,3.12-5.8,3.12-3.73,0-6.64-2.12-6.64-5.98Zm12.51-1.53v-2.53c-.55.55-3.49.88-4.73,1.05-2.21.29-4.03,1.02-4.03,3.07,0,1.89,1.56,2.86,3.72,2.86,3.18,0,5.04-2.12,5.04-4.45Z"></path>
  <path class="cls-5" d="m1762.94,493.01c-.45-1.32-1.55-2.63-3.92-2.63-2.17,0-3.81,1.07-3.8,2.58-.01,1.33.92,2.06,3.08,2.57l3.12.72c3.61.83,5.37,2.54,5.37,5.32,0,3.55-3.29,6.07-8.03,6.07-4.41,0-7.3-1.96-7.94-5.43l3.7-.56c.46,1.93,1.93,2.92,4.22,2.92,2.51,0,4.13-1.19,4.13-2.71,0-1.23-.88-2.07-2.78-2.49l-3.32-.73c-3.68-.82-5.37-2.67-5.37-5.46,0-3.48,3.15-5.82,7.58-5.82s6.64,1.99,7.43,5.05l-3.47.61Z"></path>
  <path class="cls-5" d="m1770.09,497.55c0-6.04,3.61-10.2,9.08-10.2,4.45,0,8.7,2.77,8.7,9.87v1.36h-13.96c.1,3.78,2.3,5.91,5.58,5.91,2.17,0,3.84-.95,4.53-2.8l3.62.65c-.87,3.2-3.9,5.31-8.18,5.31-5.79,0-9.35-3.99-9.35-10.09Zm14.03-1.84c-.01-3-1.96-5.2-4.92-5.2s-5.13,2.42-5.28,5.2h10.2Z"></path>
  <path class="cls-5" d="m1238.16,533.59l-4.55,2.93-1.39-2.43,4.83-2.47-4.83-2.47,1.39-2.43,4.55,2.93-.24-5.4h2.77l-.24,5.4,4.55-2.93,1.39,2.43-4.83,2.47,4.83,2.47-1.39,2.43-4.55-2.93.24,5.4h-2.77l.24-5.4Z"></path>
  <path class="cls-5" d="m1268.79,524.25h9.33c6.09,0,9.07,3.66,9.07,8.48s-3,8.5-9.08,8.5h-5.37v9.21h-3.95v-26.19Zm8.96,13.63c3.86,0,5.46-2.19,5.46-5.15s-1.6-5.09-5.51-5.09h-4.96v10.24h5.01Z"></path>
  <path class="cls-5" d="m1291.5,530.8h3.7v3.12h.2c.72-2.11,2.69-3.41,4.99-3.41.49,0,1.24.04,1.62.09v3.66c-.31-.09-1.2-.23-2-.23-2.71,0-4.69,1.85-4.69,4.42v11.99h-3.82v-19.64Z"></path>
  <path class="cls-5" d="m1304.84,525.49c0-1.25,1.09-2.29,2.42-2.29s2.42,1.04,2.42,2.29-1.1,2.28-2.42,2.28-2.42-1.02-2.42-2.28Zm.49,5.31h3.82v19.64h-3.82v-19.64Z"></path>
  <path class="cls-5" d="m1314.29,530.8h3.67v3.2h.24c.82-2.16,2.75-3.45,5.34-3.45s4.42,1.3,5.28,3.45h.21c.95-2.1,3.07-3.45,5.89-3.45,3.55,0,6.06,2.24,6.06,6.73v13.17h-3.82v-12.81c0-2.66-1.66-3.78-3.68-3.78-2.49,0-3.94,1.71-3.94,4.08v12.52h-3.81v-13.06c0-2.14-1.47-3.54-3.59-3.54s-4.03,1.84-4.03,4.49v12.11h-3.82v-19.64Z"></path>
  <path class="cls-5" d="m1345.18,544.89c0-4.46,3.81-5.43,7.53-5.87,3.53-.41,4.96-.38,4.96-1.78v-.09c0-2.22-1.27-3.52-3.73-3.52s-4,1.34-4.56,2.74l-3.59-.82c1.28-3.58,4.55-5.01,8.11-5.01,3.12,0,7.62,1.14,7.62,6.85v13.04h-3.73v-2.69h-.15c-.73,1.47-2.56,3.12-5.8,3.12-3.73,0-6.64-2.12-6.64-5.98Zm12.51-1.53v-2.53c-.55.55-3.49.88-4.73,1.05-2.21.29-4.03,1.02-4.03,3.07,0,1.89,1.56,2.86,3.72,2.86,3.18,0,5.04-2.12,5.04-4.45Z"></path>
  <path class="cls-5" d="m1366.59,530.8h3.7v3.12h.2c.72-2.11,2.69-3.41,4.99-3.41.49,0,1.24.04,1.62.09v3.66c-.31-.09-1.2-.23-2-.23-2.71,0-4.69,1.85-4.69,4.42v11.99h-3.82v-19.64Z"></path>
  <path class="cls-5" d="m1380.84,557.33l.92-3.13c2.1.58,3.47.35,4.44-2.2l.47-1.3-7.19-19.9h4.09l4.97,15.24h.2l4.97-15.24,4.13.04-8.12,22.22c-1.13,3.04-3.13,4.69-6.29,4.69-1.15,0-2.15-.2-2.61-.42Z"></path>
  <path class="cls-5" d="m1410.13,543.49c0-3.12,2.03-5.05,5.02-7.12-1.65-2.01-2.88-3.86-2.88-6.2,0-3.62,2.62-6.19,6.61-6.19s6.5,2.65,6.5,5.7c0,2.49-1.3,4.32-3.48,5.91l-1.79,1.32,5.24,6.27c.68-1.3,1.09-2.86,1.09-4.62h3.45c0,3.63-1.06,5.96-2.17,7.44l3.72,4.45h-4.32l-1.76-2.07c-1.76,1.65-4.39,2.44-6.75,2.44-5.27,0-8.48-3.12-8.48-7.33Zm7.21-4.54l-.69.51c-2.05,1.51-2.72,3.12-2.72,3.93,0,2.26,1.85,4.19,4.69,4.19,1.61,0,3.24-.61,4.59-1.74l-5.87-6.89Zm2.28-5.73c1.42-.93,2.28-1.88,2.28-3.44,0-1.23-1.15-2.61-2.92-2.61s-3.09,1.53-3.09,3.06c0,1.33.93,2.67,2.12,4.13l1.61-1.14Z"></path>
  <path class="cls-5" d="m1455.21,536.21c-.45-1.32-1.55-2.63-3.92-2.63-2.17,0-3.81,1.07-3.8,2.58-.01,1.33.92,2.06,3.08,2.57l3.12.72c3.61.83,5.37,2.54,5.37,5.32,0,3.55-3.29,6.07-8.03,6.07-4.41,0-7.3-1.96-7.94-5.43l3.7-.56c.46,1.93,1.93,2.92,4.22,2.92,2.51,0,4.13-1.19,4.13-2.71,0-1.23-.88-2.07-2.78-2.49l-3.32-.73c-3.68-.82-5.37-2.67-5.37-5.46,0-3.48,3.15-5.82,7.58-5.82s6.64,1.99,7.43,5.05l-3.47.61Z"></path>
  <path class="cls-5" d="m1472.42,533.87h-4.03v10.8c0,2.21,1.11,2.62,2.35,2.62.61,0,1.09-.12,1.34-.17l.69,3.16c-.45.17-1.27.4-2.48.41-3.02.06-5.74-1.66-5.73-5.23v-11.6h-2.88v-3.07h2.88v-4.71h3.82v4.71h4.03v3.07Z"></path>
  <path class="cls-5" d="m1475.71,544.89c0-4.46,3.81-5.43,7.53-5.87,3.53-.41,4.96-.38,4.96-1.78v-.09c0-2.22-1.27-3.52-3.73-3.52s-4,1.34-4.56,2.74l-3.59-.82c1.28-3.58,4.55-5.01,8.11-5.01,3.12,0,7.62,1.14,7.62,6.85v13.04h-3.73v-2.69h-.15c-.73,1.47-2.56,3.12-5.8,3.12-3.73,0-6.64-2.12-6.64-5.98Zm12.51-1.53v-2.53c-.55.55-3.49.88-4.73,1.05-2.21.29-4.03,1.02-4.03,3.07,0,1.89,1.56,2.86,3.72,2.86,3.18,0,5.04-2.12,5.04-4.45Z"></path>
  <path class="cls-5" d="m1500.95,550.44h-3.82v-19.64h3.67v3.2h.24c.91-2.08,2.84-3.45,5.79-3.45,4.01,0,6.69,2.54,6.69,7.4v12.49h-3.82v-12.03c0-2.85-1.57-4.55-4.17-4.55s-4.58,1.79-4.58,4.92v11.66Z"></path>
  <path class="cls-5" d="m1517.77,540.66c0-6.37,3.49-10.11,8.23-10.11,3.66,0,4.96,2.23,5.65,3.44h.23v-9.73h3.82v26.19h-3.73v-3.06h-.32c-.69,1.25-2.1,3.44-5.68,3.44-4.77,0-8.21-3.81-8.21-10.17Zm14.18-.04c0-4.1-1.79-6.83-5.13-6.83s-5.19,2.93-5.19,6.83,1.78,6.94,5.19,6.94,5.13-2.81,5.13-6.94Z"></path>
  <path class="cls-5" d="m1541.46,524.25h3.82v9.73h.23c.68-1.21,1.99-3.44,5.64-3.44,4.74,0,8.25,3.75,8.25,10.11s-3.45,10.17-8.21,10.17c-3.58,0-4.99-2.19-5.68-3.44h-.32v3.06h-3.73v-26.19Zm8.87,23.31c3.41,0,5.2-3,5.2-6.94s-1.74-6.83-5.2-6.83-5.13,2.72-5.13,6.83,1.84,6.94,5.13,6.94Z"></path>
  <path class="cls-5" d="m1562.8,557.33l.92-3.13c2.1.58,3.47.35,4.44-2.2l.47-1.3-7.19-19.9h4.09l4.97,15.24h.2l4.97-15.24,4.13.04-8.12,22.22c-1.13,3.04-3.13,4.69-6.29,4.69-1.15,0-2.15-.2-2.61-.42Z"></path>
  <path class="cls-5" d="m1592.06,540.71c0-6,3.58-10.17,9.12-10.17,4.46,0,7.7,2.63,8.11,6.6h-3.72c-.41-1.84-1.89-3.38-4.32-3.38-3.2,0-5.32,2.65-5.32,6.85s2.08,6.98,5.32,6.98c2.19,0,3.84-1.25,4.32-3.38h3.72c-.42,3.82-3.43,6.61-8.07,6.61-5.7,0-9.16-4.21-9.16-10.13Z"></path>
  <path class="cls-5" d="m1612.5,540.71c0-6.11,3.62-10.17,9.16-10.17s9.16,4.05,9.16,10.17-3.62,10.13-9.16,10.13-9.16-4.05-9.16-10.13Zm14.45-.01c0-3.76-1.69-6.96-5.28-6.96s-5.31,3.2-5.31,6.96,1.69,6.93,5.31,6.93,5.28-3.16,5.28-6.93Z"></path>
  <path class="cls-5" d="m1638.89,550.44h-3.82v-19.64h3.67v3.2h.24c.91-2.08,2.84-3.45,5.79-3.45,4.01,0,6.69,2.54,6.69,7.4v12.49h-3.82v-12.03c0-2.85-1.57-4.55-4.17-4.55s-4.58,1.79-4.58,4.92v11.66Z"></path>
  <path class="cls-5" d="m1665.92,533.87h-4.23v16.57h-3.84v-16.57h-3.03v-3.07h3.03v-2.28c0-3.68,2.72-5.5,5.83-5.5,1.55,0,2.66.32,3.2.52l-.89,3.09c-.36-.12-.92-.29-1.71-.29-1.87,0-2.58.95-2.58,2.69v1.76h4.23v3.07Z"></path>
  <path class="cls-5" d="m1669.37,525.49c0-1.25,1.09-2.29,2.42-2.29s2.42,1.04,2.42,2.29-1.1,2.28-2.42,2.28-2.42-1.02-2.42-2.28Zm.49,5.31h3.82v19.64h-3.82v-19.64Z"></path>
  <path class="cls-5" d="m1678.7,553.77l3.29-1.36c.68,1.09,1.92,2.69,5.1,2.69,2.9,0,5.01-1.34,5.01-4.37v-3.86h-.24c-.69,1.25-2.08,3.29-5.69,3.29-4.64,0-8.21-3.34-8.21-9.6s3.49-10,8.23-10c3.66,0,5.01,2.23,5.69,3.44h.28v-3.18h3.75v20.08c0,5.01-3.86,7.3-8.86,7.3-4.69,0-7.31-2.05-8.35-4.41Zm13.44-13.27c0-3.98-1.79-6.7-5.13-6.7s-5.19,2.93-5.19,6.7,1.78,6.48,5.19,6.48,5.13-2.43,5.13-6.48Z"></path>
  <path class="cls-5" d="m1713.48,530.8h3.84v19.64h-3.76v-3.4h-.21c-.91,2.1-2.92,3.66-5.87,3.66-3.77,0-6.44-2.53-6.44-7.4v-12.49h3.82v12.03c0,2.67,1.64,4.39,4,4.39,2.15,0,4.63-1.59,4.62-4.92v-11.5Z"></path>
  <path class="cls-5" d="m1722.44,530.8h3.7v3.12h.2c.72-2.11,2.69-3.41,4.99-3.41.49,0,1.24.04,1.62.09v3.66c-.31-.09-1.2-.23-2-.23-2.71,0-4.69,1.85-4.69,4.42v11.99h-3.82v-19.64Z"></path>
  <path class="cls-5" d="m1735.17,544.89c0-4.46,3.81-5.43,7.53-5.87,3.53-.41,4.96-.38,4.96-1.78v-.09c0-2.22-1.27-3.52-3.73-3.52s-4,1.34-4.56,2.74l-3.59-.82c1.28-3.58,4.55-5.01,8.11-5.01,3.12,0,7.62,1.14,7.62,6.85v13.04h-3.73v-2.69h-.15c-.73,1.47-2.56,3.12-5.8,3.12-3.73,0-6.64-2.12-6.64-5.98Zm12.51-1.53v-2.53c-.55.55-3.49.88-4.73,1.05-2.21.29-4.03,1.02-4.03,3.07,0,1.89,1.56,2.86,3.72,2.86,3.18,0,5.04-2.12,5.04-4.45Z"></path>
  <path class="cls-5" d="m1765.75,533.87h-4.03v10.8c0,2.21,1.11,2.62,2.35,2.62.61,0,1.09-.12,1.34-.17l.69,3.16c-.45.17-1.27.4-2.48.41-3.02.06-5.74-1.66-5.73-5.23v-11.6h-2.88v-3.07h2.88v-4.71h3.82v4.71h4.03v3.07Z"></path>
  <path class="cls-5" d="m1769.48,525.49c0-1.25,1.09-2.29,2.42-2.29s2.42,1.04,2.42,2.29-1.1,2.28-2.42,2.28-2.42-1.02-2.42-2.28Zm.49,5.31h3.82v19.64h-3.82v-19.64Z"></path>
  <path class="cls-5" d="m1778.05,540.71c0-6.11,3.62-10.17,9.16-10.17s9.16,4.05,9.16,10.17-3.62,10.13-9.16,10.13-9.16-4.05-9.16-10.13Zm14.45-.01c0-3.76-1.69-6.96-5.28-6.96s-5.31,3.2-5.31,6.96,1.69,6.93,5.31,6.93,5.28-3.16,5.28-6.93Z"></path>
  <path class="cls-5" d="m1804.43,550.44h-3.82v-19.64h3.67v3.2h.24c.91-2.08,2.84-3.45,5.79-3.45,4.01,0,6.69,2.54,6.69,7.4v12.49h-3.82v-12.03c0-2.85-1.57-4.55-4.17-4.55s-4.58,1.79-4.58,4.92v11.66Z"></path>
  <path class="cls-5" d="m1833.37,536.21c-.45-1.32-1.55-2.63-3.92-2.63-2.17,0-3.81,1.07-3.8,2.58-.01,1.33.92,2.06,3.08,2.57l3.12.72c3.61.83,5.37,2.54,5.37,5.32,0,3.55-3.29,6.07-8.03,6.07-4.41,0-7.3-1.96-7.94-5.43l3.7-.56c.46,1.93,1.93,2.92,4.22,2.92,2.51,0,4.13-1.19,4.13-2.71,0-1.23-.88-2.07-2.78-2.49l-3.32-.73c-3.68-.82-5.37-2.67-5.37-5.46,0-3.48,3.15-5.82,7.58-5.82s6.64,1.99,7.43,5.05l-3.47.61Z"></path>
  <path class="cls-5" d="m1273.38,593.64h-3.82v-19.64h3.67v3.2h.24c.91-2.08,2.84-3.45,5.79-3.45,4.01,0,6.69,2.54,6.69,7.4v12.49h-3.82v-12.03c0-2.85-1.57-4.55-4.17-4.55s-4.58,1.79-4.58,4.92v11.66Z"></path>
  <path class="cls-5" d="m1290.18,583.95c0-6.04,3.61-10.2,9.08-10.2,4.45,0,8.7,2.77,8.7,9.87v1.36h-13.96c.1,3.78,2.3,5.91,5.58,5.91,2.17,0,3.84-.95,4.53-2.8l3.62.65c-.87,3.2-3.9,5.31-8.18,5.31-5.79,0-9.35-3.99-9.35-10.09Zm14.03-1.84c-.01-3-1.96-5.2-4.92-5.2s-5.13,2.42-5.28,5.2h10.2Z"></path>
  <path class="cls-5" d="m1311.32,583.95c0-6.04,3.61-10.2,9.08-10.2,4.45,0,8.7,2.77,8.7,9.87v1.36h-13.96c.1,3.78,2.3,5.91,5.58,5.91,2.17,0,3.84-.95,4.53-2.8l3.62.65c-.87,3.2-3.9,5.31-8.18,5.31-5.79,0-9.35-3.99-9.35-10.09Zm14.03-1.84c-.01-3-1.96-5.2-4.92-5.2s-5.13,2.42-5.28,5.2h10.2Z"></path>
  <path class="cls-5" d="m1332.5,583.86c0-6.37,3.49-10.11,8.23-10.11,3.66,0,4.96,2.23,5.65,3.44h.23v-9.73h3.82v26.19h-3.73v-3.06h-.32c-.69,1.25-2.1,3.44-5.68,3.44-4.77,0-8.21-3.81-8.21-10.17Zm14.18-.04c0-4.1-1.79-6.83-5.13-6.83s-5.19,2.93-5.19,6.83,1.78,6.94,5.19,6.94,5.13-2.81,5.13-6.94Z"></path>
  <path class="cls-5" d="m1374.58,577.07h-4.03v10.8c0,2.21,1.11,2.62,2.35,2.62.61,0,1.09-.12,1.34-.17l.69,3.16c-.45.17-1.27.4-2.48.41-3.02.06-5.74-1.66-5.73-5.23v-11.6h-2.88v-3.07h2.88v-4.71h3.82v4.71h4.03v3.07Z"></path>
  <path class="cls-5" d="m1377.71,583.91c0-6.11,3.62-10.17,9.16-10.17s9.16,4.05,9.16,10.17-3.62,10.13-9.16,10.13-9.16-4.05-9.16-10.13Zm14.45-.01c0-3.76-1.69-6.96-5.28-6.96s-5.31,3.2-5.31,6.96,1.69,6.93,5.31,6.93,5.28-3.16,5.28-6.93Z"></path>
  <path class="cls-5" d="m1410.12,567.45h3.82v9.73h.23c.68-1.21,1.99-3.44,5.64-3.44,4.74,0,8.25,3.75,8.25,10.11s-3.45,10.17-8.21,10.17c-3.58,0-4.99-2.19-5.68-3.44h-.32v3.06h-3.73v-26.19Zm8.87,23.31c3.41,0,5.2-3,5.2-6.94s-1.74-6.83-5.2-6.83-5.13,2.72-5.13,6.83,1.84,6.94,5.13,6.94Z"></path>
  <path class="cls-5" d="m1431.46,583.95c0-6.04,3.61-10.2,9.08-10.2,4.45,0,8.7,2.77,8.7,9.87v1.36h-13.96c.1,3.78,2.3,5.91,5.58,5.91,2.17,0,3.84-.95,4.53-2.8l3.62.65c-.87,3.2-3.9,5.31-8.18,5.31-5.79,0-9.35-3.99-9.35-10.09Zm14.03-1.84c-.01-3-1.96-5.2-4.92-5.2s-5.13,2.42-5.28,5.2h10.2Z"></path>
  <path class="cls-5" d="m1474.27,579.41c-.45-1.32-1.55-2.63-3.92-2.63-2.17,0-3.81,1.07-3.8,2.58-.01,1.33.92,2.06,3.08,2.57l3.12.72c3.61.83,5.37,2.54,5.37,5.32,0,3.55-3.29,6.07-8.03,6.07-4.41,0-7.3-1.96-7.94-5.43l3.7-.56c.46,1.93,1.93,2.92,4.22,2.92,2.51,0,4.13-1.19,4.13-2.71,0-1.23-.88-2.07-2.78-2.49l-3.32-.73c-3.68-.82-5.37-2.67-5.37-5.46,0-3.48,3.15-5.82,7.58-5.82s6.64,2,7.43,5.05l-3.47.61Z"></path>
  <path class="cls-5" d="m1481.83,568.69c0-1.25,1.09-2.29,2.42-2.29s2.42,1.04,2.42,2.29-1.1,2.28-2.42,2.28-2.42-1.02-2.42-2.28Zm.49,5.31h3.82v19.64h-3.82v-19.64Z"></path>
  <path class="cls-5" d="m1491.27,574h3.67v3.2h.24c.82-2.16,2.75-3.45,5.34-3.45s4.42,1.3,5.28,3.45h.21c.95-2.1,3.07-3.45,5.89-3.45,3.55,0,6.06,2.24,6.06,6.73v13.17h-3.82v-12.81c0-2.66-1.66-3.78-3.68-3.78-2.49,0-3.94,1.71-3.94,4.08v12.52h-3.81v-13.06c0-2.14-1.47-3.54-3.59-3.54s-4.03,1.84-4.03,4.49v12.11h-3.82v-19.64Z"></path>
  <path class="cls-5" d="m1522.59,568.69c0-1.25,1.09-2.29,2.42-2.29s2.42,1.04,2.42,2.29-1.1,2.28-2.42,2.28-2.42-1.02-2.42-2.28Zm.49,5.31h3.82v19.64h-3.82v-19.64Z"></path>
  <path class="cls-5" d="m1535.87,593.64h-3.82v-26.19h3.82v26.19Z"></path>
  <path class="cls-5" d="m1540.08,588.09c0-4.46,3.81-5.43,7.53-5.87,3.53-.41,4.96-.38,4.96-1.78v-.09c0-2.22-1.27-3.52-3.73-3.52s-4,1.34-4.56,2.74l-3.59-.82c1.28-3.58,4.55-5.01,8.11-5.01,3.12,0,7.62,1.14,7.62,6.85v13.04h-3.73v-2.69h-.15c-.73,1.47-2.56,3.12-5.8,3.12-3.73,0-6.64-2.12-6.64-5.98Zm12.51-1.53v-2.53c-.55.55-3.49.88-4.73,1.05-2.21.29-4.03,1.02-4.03,3.07,0,1.89,1.56,2.86,3.72,2.86,3.18,0,5.04-2.12,5.04-4.45Z"></path>
  <path class="cls-5" d="m1561.5,574h3.7v3.12h.2c.72-2.11,2.69-3.41,4.99-3.41.49,0,1.24.04,1.62.09v3.66c-.31-.09-1.2-.23-2-.23-2.71,0-4.69,1.85-4.69,4.42v11.99h-3.82v-19.64Z"></path>
  <path class="cls-5" d="m1238.16,913.8l-4.55,2.93-1.39-2.43,4.83-2.47-4.83-2.47,1.39-2.43,4.55,2.93-.24-5.4h2.77l-.24,5.4,4.55-2.93,1.39,2.43-4.83,2.47,4.83,2.47-1.39,2.43-4.55-2.93.24,5.4h-2.77l.24-5.4Z"></path>
  <path class="cls-5" d="m1286.55,912.98c-.65-3.39-3.45-5.27-6.79-5.27-4.51,0-7.89,3.49-7.89,9.85s3.39,9.85,7.88,9.85c3.31,0,6.12-1.84,6.8-5.19h3.99c-.86,5.19-5.06,8.8-10.82,8.8-6.8,0-11.78-5.08-11.78-13.45s5-13.45,11.78-13.45c5.54,0,9.92,3.27,10.82,8.87h-3.99Z"></path>
  <path class="cls-5" d="m1294.04,925.1c0-4.46,3.81-5.43,7.53-5.87,3.53-.41,4.96-.38,4.96-1.78v-.09c0-2.22-1.27-3.52-3.73-3.52s-4,1.34-4.56,2.74l-3.59-.82c1.28-3.58,4.55-5.01,8.11-5.01,3.12,0,7.62,1.14,7.62,6.85v13.04h-3.73v-2.69h-.15c-.73,1.47-2.56,3.12-5.8,3.12-3.73,0-6.64-2.12-6.64-5.98Zm12.51-1.53v-2.53c-.55.55-3.49.88-4.73,1.05-2.21.29-4.03,1.02-4.03,3.07,0,1.89,1.56,2.86,3.72,2.86,3.18,0,5.04-2.12,5.04-4.45Z"></path>
  <path class="cls-5" d="m1319.28,930.65h-3.82v-19.64h3.67v3.2h.24c.91-2.08,2.84-3.45,5.79-3.45,4.01,0,6.69,2.54,6.69,7.4v12.49h-3.82v-12.03c0-2.85-1.57-4.55-4.17-4.55s-4.58,1.79-4.58,4.92v11.66Z"></path>
  <path class="cls-5" d="m1346.5,911.01h3.7v3.12h.2c.72-2.11,2.69-3.41,4.99-3.41.49,0,1.24.04,1.62.09v3.66c-.31-.09-1.2-.23-2-.23-2.71,0-4.69,1.85-4.69,4.42v11.99h-3.82v-19.64Z"></path>
  <path class="cls-5" d="m1358.73,920.96c0-6.04,3.61-10.2,9.08-10.2,4.45,0,8.7,2.77,8.7,9.87v1.36h-13.96c.1,3.78,2.3,5.91,5.58,5.91,2.17,0,3.84-.95,4.53-2.8l3.62.65c-.87,3.2-3.9,5.31-8.18,5.31-5.79,0-9.35-3.99-9.35-10.09Zm14.03-1.84c-.01-3-1.96-5.2-4.92-5.2s-5.13,2.42-5.28,5.2h10.2Z"></path>
  <path class="cls-5" d="m1380.76,911.01h3.73v3.18h.32c.68-1.21,1.99-3.44,5.64-3.44,4.74,0,8.25,3.75,8.25,10.11s-3.45,10.17-8.21,10.17c-3.58,0-4.99-2.19-5.68-3.44h-.23v10.42h-3.82v-27.01Zm8.87,16.76c3.41,0,5.2-3,5.2-6.94s-1.74-6.83-5.2-6.83-5.13,2.72-5.13,6.83,1.84,6.94,5.13,6.94Z"></path>
  <path class="cls-5" d="m1406.8,930.65h-3.82v-26.19h3.82v26.19Z"></path>
  <path class="cls-5" d="m1411.45,905.7c0-1.25,1.09-2.29,2.42-2.29s2.42,1.04,2.42,2.29-1.1,2.28-2.42,2.28-2.42-1.02-2.42-2.28Zm.49,5.31h3.82v19.64h-3.82v-19.64Z"></path>
  <path class="cls-5" d="m1420.02,920.92c0-6,3.58-10.17,9.12-10.17,4.46,0,7.7,2.63,8.11,6.6h-3.72c-.41-1.84-1.89-3.38-4.32-3.38-3.2,0-5.32,2.65-5.32,6.85s2.08,6.98,5.32,6.98c2.19,0,3.84-1.25,4.32-3.38h3.72c-.42,3.82-3.43,6.61-8.07,6.61-5.7,0-9.16-4.21-9.16-10.13Z"></path>
  <path class="cls-5" d="m1440.42,925.1c0-4.46,3.81-5.43,7.53-5.87,3.53-.41,4.96-.38,4.96-1.78v-.09c0-2.22-1.27-3.52-3.73-3.52s-4,1.34-4.56,2.74l-3.59-.82c1.28-3.58,4.55-5.01,8.11-5.01,3.12,0,7.62,1.14,7.62,6.85v13.04h-3.73v-2.69h-.15c-.73,1.47-2.56,3.12-5.8,3.12-3.73,0-6.64-2.12-6.64-5.98Zm12.51-1.53v-2.53c-.55.55-3.49.88-4.73,1.05-2.21.29-4.03,1.02-4.03,3.07,0,1.89,1.56,2.86,3.72,2.86,3.18,0,5.04-2.12,5.04-4.45Z"></path>
  <path class="cls-5" d="m1471,914.08h-4.03v10.8c0,2.21,1.11,2.62,2.35,2.62.61,0,1.09-.12,1.34-.17l.69,3.16c-.45.17-1.27.4-2.48.41-3.02.06-5.74-1.66-5.73-5.23v-11.6h-2.88v-3.07h2.88v-4.71h3.82v4.71h4.03v3.07Z"></path>
  <path class="cls-5" d="m1474.13,920.96c0-6.04,3.61-10.2,9.08-10.2,4.45,0,8.7,2.77,8.7,9.87v1.36h-13.96c.1,3.78,2.3,5.91,5.58,5.91,2.17,0,3.84-.95,4.53-2.8l3.62.65c-.87,3.2-3.9,5.31-8.18,5.31-5.79,0-9.35-3.99-9.35-10.09Zm14.03-1.84c-.01-3-1.96-5.2-4.92-5.2s-5.13,2.42-5.28,5.2h10.2Z"></path>
  <path class="cls-5" d="m1516.95,916.42c-.45-1.32-1.55-2.63-3.92-2.63-2.17,0-3.81,1.07-3.8,2.58-.01,1.33.92,2.06,3.08,2.57l3.12.72c3.61.83,5.37,2.54,5.37,5.32,0,3.55-3.29,6.07-8.03,6.07-4.41,0-7.3-1.96-7.94-5.43l3.7-.56c.46,1.93,1.93,2.92,4.22,2.92,2.51,0,4.13-1.19,4.13-2.71,0-1.23-.88-2.07-2.78-2.49l-3.32-.73c-3.68-.82-5.37-2.67-5.37-5.46,0-3.48,3.15-5.82,7.58-5.82s6.64,1.99,7.43,5.05l-3.47.61Z"></path>
  <path class="cls-5" d="m1524.99,911.01h3.73v3.18h.32c.68-1.21,1.99-3.44,5.64-3.44,4.74,0,8.25,3.75,8.25,10.11s-3.45,10.17-8.21,10.17c-3.58,0-4.99-2.19-5.68-3.44h-.23v10.42h-3.82v-27.01Zm8.87,16.76c3.41,0,5.2-3,5.2-6.94s-1.74-6.83-5.2-6.83-5.13,2.72-5.13,6.83,1.84,6.94,5.13,6.94Z"></path>
  <path class="cls-5" d="m1546.32,920.96c0-6.04,3.61-10.2,9.08-10.2,4.45,0,8.7,2.77,8.7,9.87v1.36h-13.96c.1,3.78,2.3,5.91,5.58,5.91,2.17,0,3.84-.95,4.53-2.8l3.62.65c-.87,3.2-3.9,5.31-8.18,5.31-5.79,0-9.35-3.99-9.35-10.09Zm14.03-1.84c-.01-3-1.96-5.2-4.92-5.2s-5.13,2.42-5.28,5.2h10.2Z"></path>
  <path class="cls-5" d="m1567.47,920.92c0-6,3.58-10.17,9.12-10.17,4.46,0,7.7,2.63,8.11,6.6h-3.72c-.41-1.84-1.89-3.38-4.32-3.38-3.2,0-5.32,2.65-5.32,6.85s2.08,6.98,5.32,6.98c2.19,0,3.84-1.25,4.32-3.38h3.72c-.42,3.82-3.43,6.61-8.07,6.61-5.7,0-9.16-4.21-9.16-10.13Z"></path>
  <path class="cls-5" d="m1588.3,905.7c0-1.25,1.09-2.29,2.42-2.29s2.42,1.04,2.42,2.29-1.1,2.28-2.42,2.28-2.42-1.02-2.42-2.28Zm.49,5.31h3.82v19.64h-3.82v-19.64Z"></path>
  <path class="cls-5" d="m1607.1,914.08h-4.23v16.57h-3.84v-16.57h-3.03v-3.07h3.03v-2.28c0-3.68,2.72-5.5,5.83-5.5,1.55,0,2.66.32,3.2.52l-.89,3.09c-.36-.12-.92-.29-1.71-.29-1.87,0-2.58.95-2.58,2.69v1.76h4.23v3.07Z"></path>
  <path class="cls-5" d="m1610.55,905.7c0-1.25,1.09-2.29,2.42-2.29s2.42,1.04,2.42,2.29-1.1,2.28-2.42,2.28-2.42-1.02-2.42-2.28Zm.49,5.31h3.82v19.64h-3.82v-19.64Z"></path>
  <path class="cls-5" d="m1619.11,920.92c0-6,3.58-10.17,9.12-10.17,4.46,0,7.7,2.63,8.11,6.6h-3.72c-.41-1.84-1.89-3.38-4.32-3.38-3.2,0-5.32,2.65-5.32,6.85s2.08,6.98,5.32,6.98c2.19,0,3.84-1.25,4.32-3.38h3.72c-.42,3.82-3.43,6.61-8.07,6.61-5.7,0-9.16-4.21-9.16-10.13Z"></path>
  <path class="cls-5" d="m1659.14,914.08h-4.03v10.8c0,2.21,1.11,2.62,2.35,2.62.61,0,1.09-.12,1.34-.17l.69,3.16c-.45.17-1.27.4-2.48.41-3.02.06-5.74-1.66-5.73-5.23v-11.6h-2.88v-3.07h2.88v-4.71h3.82v4.71h4.03v3.07Z"></path>
  <path class="cls-5" d="m1662.44,925.1c0-4.46,3.81-5.43,7.53-5.87,3.53-.41,4.96-.38,4.96-1.78v-.09c0-2.22-1.27-3.52-3.73-3.52s-4,1.34-4.56,2.74l-3.59-.82c1.28-3.58,4.55-5.01,8.11-5.01,3.12,0,7.62,1.14,7.62,6.85v13.04h-3.73v-2.69h-.15c-.73,1.47-2.56,3.12-5.8,3.12-3.73,0-6.64-2.12-6.64-5.98Zm12.51-1.53v-2.53c-.55.55-3.49.88-4.73,1.05-2.21.29-4.03,1.02-4.03,3.07,0,1.89,1.56,2.86,3.72,2.86,3.18,0,5.04-2.12,5.04-4.45Z"></path>
  <path class="cls-5" d="m1684.16,904.46h3.82v9.73h.23c.68-1.21,1.99-3.44,5.64-3.44,4.74,0,8.25,3.75,8.25,10.11s-3.45,10.17-8.21,10.17c-3.58,0-4.99-2.19-5.68-3.44h-.32v3.06h-3.73v-26.19Zm8.87,23.31c3.41,0,5.2-3,5.2-6.94s-1.74-6.83-5.2-6.83-5.13,2.72-5.13,6.83,1.84,6.94,5.13,6.94Z"></path>
  <path class="cls-5" d="m1710.2,930.65h-3.82v-26.19h3.82v26.19Z"></path>
  <path class="cls-5" d="m1714.46,920.96c0-6.04,3.61-10.2,9.08-10.2,4.45,0,8.7,2.77,8.7,9.87v1.36h-13.96c.1,3.78,2.3,5.91,5.58,5.91,2.17,0,3.84-.95,4.53-2.8l3.62.65c-.87,3.2-3.9,5.31-8.18,5.31-5.79,0-9.35-3.99-9.35-10.09Zm14.03-1.84c-.01-3-1.96-5.2-4.92-5.2s-5.13,2.42-5.28,5.2h10.2Z"></path>
  <path class="cls-5" d="m1747.74,916.42c-.45-1.32-1.55-2.63-3.92-2.63-2.17,0-3.81,1.07-3.8,2.58-.01,1.33.92,2.06,3.08,2.57l3.12.72c3.61.83,5.37,2.54,5.37,5.32,0,3.55-3.29,6.07-8.03,6.07-4.41,0-7.3-1.96-7.94-5.43l3.7-.56c.46,1.93,1.93,2.92,4.22,2.92,2.51,0,4.13-1.19,4.13-2.71,0-1.23-.88-2.07-2.78-2.49l-3.32-.73c-3.68-.82-5.37-2.67-5.37-5.46,0-3.48,3.15-5.82,7.58-5.82s6.64,1.99,7.43,5.05l-3.47.61Z"></path>
  <path class="cls-5" d="m1238.16,957l-4.55,2.93-1.39-2.43,4.83-2.47-4.83-2.47,1.39-2.43,4.55,2.93-.24-5.4h2.77l-.24,5.4,4.55-2.93,1.39,2.43-4.83,2.47,4.83,2.47-1.39,2.43-4.55-2.93.24,5.4h-2.77l.24-5.4Z"></path>
  <path class="cls-5" d="m1268.79,947.66h9.33c6.09,0,9.07,3.66,9.07,8.48s-3,8.5-9.08,8.5h-5.37v9.21h-3.95v-26.19Zm8.96,13.63c3.86,0,5.46-2.19,5.46-5.15s-1.6-5.09-5.51-5.09h-4.96v10.24h5.01Z"></path>
  <path class="cls-5" d="m1291.5,954.21h3.7v3.12h.2c.72-2.11,2.69-3.41,4.99-3.41.49,0,1.24.04,1.62.09v3.66c-.31-.09-1.2-.23-2-.23-2.71,0-4.69,1.85-4.69,4.42v11.99h-3.82v-19.64Z"></path>
  <path class="cls-5" d="m1304.84,948.9c0-1.25,1.09-2.29,2.42-2.29s2.42,1.04,2.42,2.29-1.1,2.28-2.42,2.28-2.42-1.02-2.42-2.28Zm.49,5.31h3.82v19.64h-3.82v-19.64Z"></path>
  <path class="cls-5" d="m1314.29,954.21h3.67v3.2h.24c.82-2.16,2.75-3.45,5.34-3.45s4.42,1.3,5.28,3.45h.21c.95-2.1,3.07-3.45,5.89-3.45,3.55,0,6.06,2.24,6.06,6.73v13.17h-3.82v-12.81c0-2.66-1.66-3.78-3.68-3.78-2.49,0-3.94,1.71-3.94,4.08v12.52h-3.81v-13.06c0-2.14-1.47-3.54-3.59-3.54s-4.03,1.84-4.03,4.49v12.11h-3.82v-19.64Z"></path>
  <path class="cls-5" d="m1345.18,968.3c0-4.46,3.81-5.43,7.53-5.87,3.53-.41,4.96-.38,4.96-1.78v-.09c0-2.22-1.27-3.52-3.73-3.52s-4,1.34-4.56,2.74l-3.59-.82c1.28-3.58,4.55-5.01,8.11-5.01,3.12,0,7.62,1.14,7.62,6.85v13.04h-3.73v-2.69h-.15c-.73,1.47-2.56,3.12-5.8,3.12-3.73,0-6.64-2.12-6.64-5.98Zm12.51-1.53v-2.53c-.55.55-3.49.88-4.73,1.05-2.21.29-4.03,1.02-4.03,3.07,0,1.89,1.56,2.86,3.72,2.86,3.18,0,5.04-2.12,5.04-4.45Z"></path>
  <path class="cls-5" d="m1366.59,954.21h3.7v3.12h.2c.72-2.11,2.69-3.41,4.99-3.41.49,0,1.24.04,1.62.09v3.66c-.31-.09-1.2-.23-2-.23-2.71,0-4.69,1.85-4.69,4.42v11.99h-3.82v-19.64Z"></path>
  <path class="cls-5" d="m1380.84,980.74l.92-3.13c2.1.58,3.47.35,4.44-2.2l.47-1.3-7.19-19.9h4.09l4.97,15.24h.2l4.97-15.24,4.13.04-8.12,22.22c-1.13,3.04-3.13,4.69-6.29,4.69-1.15,0-2.15-.2-2.61-.42Z"></path>
  <path class="cls-5" d="m1410.13,966.9c0-3.12,2.03-5.05,5.02-7.12-1.65-2.01-2.88-3.86-2.88-6.2,0-3.62,2.62-6.19,6.61-6.19s6.5,2.65,6.5,5.7c0,2.49-1.3,4.32-3.48,5.91l-1.79,1.32,5.24,6.27c.68-1.3,1.09-2.86,1.09-4.62h3.45c0,3.63-1.06,5.96-2.17,7.44l3.72,4.45h-4.32l-1.76-2.07c-1.76,1.65-4.39,2.44-6.75,2.44-5.27,0-8.48-3.12-8.48-7.33Zm7.21-4.54l-.69.51c-2.05,1.51-2.72,3.12-2.72,3.93,0,2.26,1.85,4.19,4.69,4.19,1.61,0,3.24-.61,4.59-1.74l-5.87-6.89Zm2.28-5.73c1.42-.93,2.28-1.88,2.28-3.44,0-1.23-1.15-2.61-2.92-2.61s-3.09,1.53-3.09,3.06c0,1.33.93,2.67,2.12,4.13l1.61-1.14Z"></path>
  <path class="cls-5" d="m1455.21,959.62c-.45-1.32-1.55-2.63-3.92-2.63-2.17,0-3.81,1.07-3.8,2.58-.01,1.33.92,2.06,3.08,2.57l3.12.72c3.61.83,5.37,2.54,5.37,5.32,0,3.55-3.29,6.07-8.03,6.07-4.41,0-7.3-1.96-7.94-5.43l3.7-.56c.46,1.93,1.93,2.92,4.22,2.92,2.51,0,4.13-1.19,4.13-2.71,0-1.23-.88-2.07-2.78-2.49l-3.32-.73c-3.68-.82-5.37-2.67-5.37-5.46,0-3.48,3.15-5.82,7.58-5.82s6.64,1.99,7.43,5.05l-3.47.61Z"></path>
  <path class="cls-5" d="m1472.42,957.28h-4.03v10.8c0,2.21,1.11,2.62,2.35,2.62.61,0,1.09-.12,1.34-.17l.69,3.16c-.45.17-1.27.4-2.48.41-3.02.06-5.74-1.66-5.73-5.23v-11.6h-2.88v-3.07h2.88v-4.71h3.82v4.71h4.03v3.07Z"></path>
  <path class="cls-5" d="m1475.71,968.3c0-4.46,3.81-5.43,7.53-5.87,3.53-.41,4.96-.38,4.96-1.78v-.09c0-2.22-1.27-3.52-3.73-3.52s-4,1.34-4.56,2.74l-3.59-.82c1.28-3.58,4.55-5.01,8.11-5.01,3.12,0,7.62,1.14,7.62,6.85v13.04h-3.73v-2.69h-.15c-.73,1.47-2.56,3.12-5.8,3.12-3.73,0-6.64-2.12-6.64-5.98Zm12.51-1.53v-2.53c-.55.55-3.49.88-4.73,1.05-2.21.29-4.03,1.02-4.03,3.07,0,1.89,1.56,2.86,3.72,2.86,3.18,0,5.04-2.12,5.04-4.45Z"></path>
  <path class="cls-5" d="m1500.95,973.85h-3.82v-19.64h3.67v3.2h.24c.91-2.08,2.84-3.45,5.79-3.45,4.01,0,6.69,2.54,6.69,7.4v12.49h-3.82v-12.03c0-2.85-1.57-4.55-4.17-4.55s-4.58,1.79-4.58,4.92v11.66Z"></path>
  <path class="cls-5" d="m1517.77,964.07c0-6.37,3.49-10.11,8.23-10.11,3.66,0,4.96,2.23,5.65,3.44h.23v-9.73h3.82v26.19h-3.73v-3.06h-.32c-.69,1.25-2.1,3.44-5.68,3.44-4.77,0-8.21-3.81-8.21-10.17Zm14.18-.04c0-4.1-1.79-6.83-5.13-6.83s-5.19,2.93-5.19,6.83,1.78,6.94,5.19,6.94,5.13-2.81,5.13-6.94Z"></path>
  <path class="cls-5" d="m1541.46,947.66h3.82v9.73h.23c.68-1.21,1.99-3.44,5.64-3.44,4.74,0,8.25,3.75,8.25,10.11s-3.45,10.17-8.21,10.17c-3.58,0-4.99-2.19-5.68-3.44h-.32v3.06h-3.73v-26.19Zm8.87,23.31c3.41,0,5.2-3,5.2-6.94s-1.74-6.83-5.2-6.83-5.13,2.72-5.13,6.83,1.84,6.94,5.13,6.94Z"></path>
  <path class="cls-5" d="m1562.8,980.74l.92-3.13c2.1.58,3.47.35,4.44-2.2l.47-1.3-7.19-19.9h4.09l4.97,15.24h.2l4.97-15.24,4.13.04-8.12,22.22c-1.13,3.04-3.13,4.69-6.29,4.69-1.15,0-2.15-.2-2.61-.42Z"></path>
  <path class="cls-5" d="m1592.06,964.12c0-6,3.58-10.17,9.12-10.17,4.46,0,7.7,2.63,8.11,6.6h-3.72c-.41-1.84-1.89-3.38-4.32-3.38-3.2,0-5.32,2.65-5.32,6.85s2.08,6.98,5.32,6.98c2.19,0,3.84-1.25,4.32-3.38h3.72c-.42,3.82-3.43,6.61-8.07,6.61-5.7,0-9.16-4.21-9.16-10.13Z"></path>
  <path class="cls-5" d="m1612.47,968.3c0-4.46,3.81-5.43,7.53-5.87,3.53-.41,4.96-.38,4.96-1.78v-.09c0-2.22-1.27-3.52-3.73-3.52s-4,1.34-4.56,2.74l-3.59-.82c1.28-3.58,4.55-5.01,8.11-5.01,3.12,0,7.62,1.14,7.62,6.85v13.04h-3.73v-2.69h-.15c-.73,1.47-2.56,3.12-5.8,3.12-3.73,0-6.64-2.12-6.64-5.98Zm12.51-1.53v-2.53c-.55.55-3.49.88-4.73,1.05-2.21.29-4.03,1.02-4.03,3.07,0,1.89,1.56,2.86,3.72,2.86,3.18,0,5.04-2.12,5.04-4.45Z"></path>
  <path class="cls-5" d="m1637.7,973.85h-3.82v-19.64h3.67v3.2h.24c.91-2.08,2.84-3.45,5.79-3.45,4.01,0,6.69,2.54,6.69,7.4v12.49h-3.82v-12.03c0-2.85-1.57-4.55-4.17-4.55s-4.58,1.79-4.58,4.92v11.66Z"></path>
  <path class="cls-5" d="m1668.74,973.85h-3.82v-26.19h3.77v9.74h.24c.92-2.12,2.76-3.45,5.82-3.45,4.04,0,6.73,2.51,6.73,7.4v12.49h-3.82v-12.03c0-2.88-1.57-4.55-4.21-4.55s-4.71,1.79-4.71,4.92v11.66Z"></path>
  <path class="cls-5" d="m1685.67,968.3c0-4.46,3.81-5.43,7.53-5.87,3.53-.41,4.96-.38,4.96-1.78v-.09c0-2.22-1.27-3.52-3.73-3.52s-4,1.34-4.56,2.74l-3.59-.82c1.28-3.58,4.55-5.01,8.11-5.01,3.12,0,7.62,1.14,7.62,6.85v13.04h-3.73v-2.69h-.15c-.73,1.47-2.56,3.12-5.8,3.12-3.73,0-6.64-2.12-6.64-5.98Zm12.51-1.53v-2.53c-.55.55-3.49.88-4.73,1.05-2.21.29-4.03,1.02-4.03,3.07,0,1.89,1.56,2.86,3.72,2.86,3.18,0,5.04-2.12,5.04-4.45Z"></path>
  <path class="cls-5" d="m1716.04,973.85h-4.09l-7.13-19.64h4.1l4.97,15.11h.21l4.96-15.11h4.1l-7.12,19.64Z"></path>
  <path class="cls-5" d="m1725.18,964.16c0-6.04,3.61-10.2,9.08-10.2,4.45,0,8.7,2.77,8.7,9.87v1.36h-13.96c.1,3.78,2.3,5.91,5.58,5.91,2.17,0,3.84-.95,4.53-2.8l3.62.65c-.87,3.2-3.9,5.31-8.18,5.31-5.79,0-9.35-3.99-9.35-10.09Zm14.03-1.84c-.01-3-1.96-5.2-4.92-5.2s-5.13,2.42-5.28,5.2h10.2Z"></path>
  <path class="cls-5" d="m1268.7,1007.27c0-6.37,3.49-10.11,8.23-10.11,3.66,0,4.96,2.23,5.65,3.44h.23v-9.73h3.82v26.19h-3.73v-3.06h-.32c-.69,1.25-2.1,3.44-5.68,3.44-4.77,0-8.21-3.81-8.21-10.17Zm14.18-.04c0-4.1-1.79-6.83-5.13-6.83s-5.19,2.93-5.19,6.83,1.78,6.94,5.19,6.94,5.13-2.81,5.13-6.94Z"></path>
  <path class="cls-5" d="m1291.6,992.1c0-1.25,1.09-2.29,2.42-2.29s2.42,1.04,2.42,2.29-1.1,2.28-2.42,2.28-2.42-1.02-2.42-2.28Zm.49,5.31h3.82v19.64h-3.82v-19.64Z"></path>
  <path class="cls-5" d="m1310.39,1000.48h-4.23v16.57h-3.84v-16.57h-3.03v-3.07h3.03v-2.28c0-3.68,2.72-5.5,5.83-5.5,1.55,0,2.66.32,3.2.52l-.89,3.09c-.36-.12-.92-.29-1.71-.29-1.87,0-2.58.95-2.58,2.69v1.76h4.23v3.07Z"></path>
  <path class="cls-5" d="m1323.68,1000.48h-4.23v16.57h-3.84v-16.57h-3.03v-3.07h3.03v-2.28c0-3.68,2.72-5.5,5.83-5.5,1.55,0,2.66.32,3.2.52l-.89,3.09c-.36-.12-.92-.29-1.71-.29-1.87,0-2.58.95-2.58,2.69v1.76h4.23v3.07Z"></path>
  <path class="cls-5" d="m1325.95,1007.36c0-6.04,3.61-10.2,9.08-10.2,4.45,0,8.7,2.77,8.7,9.87v1.36h-13.96c.1,3.78,2.3,5.91,5.58,5.91,2.17,0,3.84-.95,4.53-2.8l3.62.65c-.87,3.2-3.9,5.31-8.18,5.31-5.79,0-9.35-3.99-9.35-10.09Zm14.03-1.84c-.01-3-1.96-5.2-4.92-5.2s-5.13,2.42-5.28,5.2h10.2Z"></path>
  <path class="cls-5" d="m1347.98,997.41h3.7v3.12h.2c.72-2.11,2.69-3.41,4.99-3.41.49,0,1.24.04,1.62.09v3.66c-.31-.09-1.2-.23-2-.23-2.71,0-4.69,1.85-4.69,4.42v11.99h-3.82v-19.64Z"></path>
  <path class="cls-5" d="m1360.21,1007.36c0-6.04,3.61-10.2,9.08-10.2,4.45,0,8.7,2.77,8.7,9.87v1.36h-13.96c.1,3.78,2.3,5.91,5.58,5.91,2.17,0,3.84-.95,4.53-2.8l3.62.65c-.87,3.2-3.9,5.31-8.18,5.31-5.79,0-9.35-3.99-9.35-10.09Zm14.03-1.84c-.01-3-1.96-5.2-4.92-5.2s-5.13,2.42-5.28,5.2h10.2Z"></path>
  <path class="cls-5" d="m1386.06,1017.05h-3.82v-19.64h3.67v3.2h.24c.91-2.08,2.84-3.45,5.79-3.45,4.01,0,6.69,2.54,6.69,7.4v12.49h-3.82v-12.03c0-2.85-1.57-4.55-4.17-4.55s-4.58,1.79-4.58,4.92v11.66Z"></path>
  <path class="cls-5" d="m1412.91,1000.48h-4.03v10.8c0,2.21,1.11,2.62,2.35,2.62.61,0,1.09-.12,1.34-.17l.69,3.16c-.45.17-1.27.4-2.48.41-3.02.06-5.74-1.66-5.73-5.23v-11.6h-2.88v-3.07h2.88v-4.71h3.82v4.71h4.03v3.07Z"></path>
  <path class="cls-5" d="m1425.78,1007.32c0-6,3.58-10.17,9.12-10.17,4.46,0,7.7,2.63,8.11,6.6h-3.72c-.41-1.84-1.89-3.38-4.32-3.38-3.2,0-5.32,2.65-5.32,6.85s2.08,6.98,5.32,6.98c2.19,0,3.84-1.25,4.32-3.38h3.72c-.42,3.82-3.43,6.61-8.07,6.61-5.7,0-9.16-4.21-9.16-10.13Z"></path>
  <path class="cls-5" d="m1446.22,1007.32c0-6.11,3.62-10.17,9.16-10.17s9.16,4.05,9.16,10.17-3.62,10.13-9.16,10.13-9.16-4.05-9.16-10.13Zm14.45-.01c0-3.76-1.69-6.96-5.28-6.96s-5.31,3.2-5.31,6.96,1.69,6.93,5.31,6.93,5.28-3.16,5.28-6.93Z"></path>
  <path class="cls-5" d="m1472.61,1017.05h-3.82v-19.64h3.67v3.2h.24c.91-2.08,2.84-3.45,5.79-3.45,4.01,0,6.69,2.54,6.69,7.4v12.49h-3.82v-12.03c0-2.85-1.57-4.55-4.17-4.55s-4.58,1.79-4.58,4.92v11.66Z"></path>
  <path class="cls-5" d="m1499.64,1000.48h-4.23v16.57h-3.84v-16.57h-3.03v-3.07h3.03v-2.28c0-3.68,2.72-5.5,5.83-5.5,1.55,0,2.66.32,3.2.52l-.89,3.09c-.36-.12-.92-.29-1.71-.29-1.87,0-2.58.95-2.58,2.69v1.76h4.23v3.07Z"></path>
  <path class="cls-5" d="m1503.09,992.1c0-1.25,1.09-2.29,2.42-2.29s2.42,1.04,2.42,2.29-1.1,2.28-2.42,2.28-2.42-1.02-2.42-2.28Zm.49,5.31h3.82v19.64h-3.82v-19.64Z"></path>
  <path class="cls-5" d="m1512.42,1020.38l3.29-1.36c.68,1.09,1.92,2.69,5.1,2.69,2.9,0,5.01-1.34,5.01-4.37v-3.86h-.24c-.69,1.25-2.08,3.29-5.69,3.29-4.64,0-8.21-3.34-8.21-9.6s3.49-10,8.23-10c3.66,0,5.01,2.23,5.69,3.44h.28v-3.18h3.75v20.08c0,5.01-3.86,7.3-8.86,7.3-4.69,0-7.31-2.05-8.35-4.41Zm13.44-13.27c0-3.98-1.79-6.7-5.13-6.7s-5.19,2.93-5.19,6.7,1.78,6.48,5.19,6.48,5.13-2.43,5.13-6.48Z"></path>
  <path class="cls-5" d="m1547.19,997.41h3.84v19.64h-3.76v-3.4h-.21c-.91,2.1-2.92,3.66-5.87,3.66-3.77,0-6.44-2.53-6.44-7.4v-12.49h3.82v12.03c0,2.67,1.64,4.39,4,4.39,2.15,0,4.63-1.59,4.62-4.92v-11.5Z"></path>
  <path class="cls-5" d="m1556.15,997.41h3.7v3.12h.2c.72-2.11,2.69-3.41,4.99-3.41.49,0,1.24.04,1.62.09v3.66c-.31-.09-1.2-.23-2-.23-2.71,0-4.69,1.85-4.69,4.42v11.99h-3.82v-19.64Z"></path>
  <path class="cls-5" d="m1568.89,1011.5c0-4.46,3.81-5.43,7.53-5.87,3.53-.41,4.96-.38,4.96-1.78v-.09c0-2.22-1.27-3.52-3.73-3.52s-4,1.34-4.56,2.74l-3.59-.82c1.28-3.58,4.55-5.01,8.11-5.01,3.12,0,7.62,1.14,7.62,6.85v13.04h-3.73v-2.69h-.15c-.73,1.47-2.56,3.12-5.8,3.12-3.73,0-6.64-2.12-6.64-5.98Zm12.51-1.53v-2.53c-.55.55-3.49.88-4.73,1.05-2.21.29-4.03,1.02-4.03,3.07,0,1.89,1.56,2.86,3.72,2.86,3.18,0,5.04-2.12,5.04-4.45Z"></path>
  <path class="cls-5" d="m1599.47,1000.48h-4.03v10.8c0,2.21,1.11,2.62,2.35,2.62.61,0,1.09-.12,1.34-.17l.69,3.16c-.45.17-1.27.4-2.48.41-3.02.06-5.74-1.66-5.73-5.23v-11.6h-2.88v-3.07h2.88v-4.71h3.82v4.71h4.03v3.07Z"></path>
  <path class="cls-5" d="m1603.2,992.1c0-1.25,1.09-2.29,2.42-2.29s2.42,1.04,2.42,2.29-1.1,2.28-2.42,2.28-2.42-1.02-2.42-2.28Zm.49,5.31h3.82v19.64h-3.82v-19.64Z"></path>
  <path class="cls-5" d="m1611.76,1007.32c0-6.11,3.62-10.17,9.16-10.17s9.16,4.05,9.16,10.17-3.62,10.13-9.16,10.13-9.16-4.05-9.16-10.13Zm14.45-.01c0-3.76-1.69-6.96-5.28-6.96s-5.31,3.2-5.31,6.96,1.69,6.93,5.31,6.93,5.28-3.16,5.28-6.93Z"></path>
  <path class="cls-5" d="m1638.15,1017.05h-3.82v-19.64h3.67v3.2h.24c.91-2.08,2.84-3.45,5.79-3.45,4.01,0,6.69,2.54,6.69,7.4v12.49h-3.82v-12.03c0-2.85-1.57-4.55-4.17-4.55s-4.58,1.79-4.58,4.92v11.66Z"></path>
  <path class="cls-5" d="m1667.08,1002.82c-.45-1.32-1.55-2.63-3.92-2.63-2.17,0-3.81,1.07-3.8,2.58-.01,1.33.92,2.06,3.08,2.57l3.12.72c3.61.83,5.37,2.54,5.37,5.32,0,3.55-3.29,6.07-8.03,6.07-4.41,0-7.3-1.96-7.94-5.43l3.7-.56c.46,1.93,1.93,2.92,4.22,2.92,2.51,0,4.13-1.19,4.13-2.71,0-1.23-.88-2.07-2.78-2.49l-3.32-.73c-3.68-.82-5.37-2.67-5.37-5.46,0-3.48,3.15-5.82,7.58-5.82s6.64,2,7.43,5.05l-3.47.61Z"></path>
  <path class="cls-5" d="m94.48,492.59c-3.22,0-5.26,1.65-5.26,3.87-.01,2.51,2.71,3.46,4.76,3.99l2.56.67c3.32.82,7.53,2.65,7.53,7.37,0,4.44-3.54,7.67-9.69,7.67s-9.54-2.93-9.79-7.67h3.96c.23,2.85,2.76,4.21,5.81,4.21,3.36,0,5.81-1.69,5.81-4.25,0-2.33-2.16-3.25-4.96-3.99l-3.1-.84c-4.21-1.14-6.81-3.27-6.81-6.92,0-4.51,4.03-7.52,9.28-7.52s9.03,3.04,9.14,7.24h-3.81c-.28-2.42-2.42-3.82-5.42-3.82Z"></path>
  <path class="cls-5" d="m117.65,499.15h-4.03v10.8c0,2.21,1.11,2.62,2.35,2.62.61,0,1.09-.12,1.34-.17l.69,3.16c-.45.17-1.27.4-2.48.41-3.02.06-5.74-1.66-5.73-5.23v-11.6h-2.88v-3.07h2.88v-4.71h3.82v4.71h4.03v3.07Z"></path>
  <path class="cls-5" d="m121.86,496.08h3.7v3.12h.21c.72-2.11,2.69-3.41,4.99-3.41.49,0,1.24.04,1.62.09v3.66c-.31-.09-1.2-.23-2-.23-2.71,0-4.69,1.85-4.69,4.42v11.99h-3.82v-19.64Z"></path>
  <path class="cls-5" d="m134.1,506.03c0-6.04,3.61-10.2,9.08-10.2,4.45,0,8.69,2.77,8.69,9.87v1.36h-13.96c.1,3.78,2.3,5.91,5.58,5.91,2.17,0,3.84-.95,4.53-2.8l3.62.65c-.87,3.2-3.9,5.31-8.18,5.31-5.79,0-9.35-3.99-9.35-10.09Zm14.03-1.84c-.01-3-1.96-5.2-4.92-5.2s-5.13,2.42-5.28,5.2h10.2Z"></path>
  <path class="cls-5" d="m155.2,510.17c0-4.46,3.81-5.43,7.53-5.87,3.53-.41,4.96-.38,4.96-1.78v-.09c0-2.22-1.27-3.52-3.73-3.52s-4,1.34-4.56,2.74l-3.59-.82c1.28-3.58,4.55-5.01,8.11-5.01,3.12,0,7.62,1.14,7.62,6.85v13.04h-3.73v-2.69h-.15c-.73,1.47-2.56,3.12-5.81,3.12-3.73,0-6.64-2.12-6.64-5.98Zm12.51-1.53v-2.53c-.55.55-3.49.88-4.73,1.05-2.21.29-4.03,1.02-4.03,3.07,0,1.89,1.56,2.86,3.72,2.86,3.18,0,5.04-2.12,5.04-4.45Z"></path>
  <path class="cls-5" d="m176.62,496.08h3.67v3.2h.24c.82-2.16,2.75-3.45,5.34-3.45s4.42,1.3,5.28,3.45h.21c.95-2.1,3.07-3.45,5.89-3.45,3.55,0,6.06,2.24,6.06,6.73v13.17h-3.82v-12.81c0-2.66-1.66-3.78-3.68-3.78-2.49,0-3.94,1.71-3.94,4.08v12.52h-3.81v-13.06c0-2.14-1.47-3.54-3.59-3.54s-4.03,1.84-4.03,4.49v12.11h-3.82v-19.64Z"></path>
  <path class="cls-5" d="m207.94,490.77c0-1.25,1.09-2.29,2.42-2.29s2.42,1.04,2.42,2.29-1.1,2.28-2.42,2.28-2.42-1.02-2.42-2.28Zm.49,5.31h3.82v19.64h-3.82v-19.64Z"></path>
  <path class="cls-5" d="m221.21,515.72h-3.82v-19.64h3.67v3.2h.24c.91-2.08,2.84-3.45,5.79-3.45,4.02,0,6.69,2.54,6.69,7.4v12.49h-3.82v-12.03c0-2.85-1.57-4.55-4.17-4.55s-4.58,1.79-4.58,4.92v11.66Z"></path>
  <path class="cls-5" d="m238.77,519.04l3.29-1.36c.68,1.09,1.92,2.69,5.1,2.69,2.9,0,5.01-1.34,5.01-4.37v-3.86h-.24c-.69,1.25-2.08,3.29-5.69,3.29-4.64,0-8.21-3.34-8.21-9.6s3.49-10,8.23-10c3.66,0,5.01,2.23,5.69,3.44h.28v-3.18h3.75v20.08c0,5.01-3.86,7.3-8.86,7.3-4.69,0-7.31-2.05-8.35-4.41Zm13.44-13.27c0-3.98-1.79-6.7-5.13-6.7s-5.19,2.93-5.19,6.7,1.78,6.48,5.19,6.48,5.13-2.43,5.13-6.48Z"></path>
  <path class="cls-5" d="m270.95,489.53h9.33c6.07,0,9.07,3.39,9.07,8.21,0,3.52-1.6,6.19-4.81,7.38l5.81,10.6h-4.5l-5.32-9.91h-5.63v9.91h-3.95v-26.19Zm8.96,12.88c3.85,0,5.46-1.71,5.46-4.67s-1.61-4.82-5.51-4.82h-4.96v9.49h5.01Z"></path>
  <path class="cls-5" d="m292.74,506.03c0-6.04,3.61-10.2,9.08-10.2,4.45,0,8.7,2.77,8.7,9.87v1.36h-13.96c.1,3.78,2.3,5.91,5.57,5.91,2.17,0,3.84-.95,4.53-2.8l3.62.65c-.87,3.2-3.9,5.31-8.18,5.31-5.79,0-9.35-3.99-9.35-10.09Zm14.03-1.84c-.01-3-1.96-5.2-4.92-5.2s-5.13,2.42-5.28,5.2h10.2Z"></path>
  <path class="cls-5" d="m314.76,496.08h3.73v3.18h.32c.68-1.21,1.99-3.44,5.64-3.44,4.74,0,8.25,3.75,8.25,10.11s-3.45,10.17-8.21,10.17c-3.58,0-4.99-2.19-5.68-3.44h-.23v10.42h-3.82v-27.01Zm8.87,16.76c3.41,0,5.2-3,5.2-6.94s-1.74-6.83-5.2-6.83-5.13,2.72-5.13,6.83,1.84,6.94,5.13,6.94Z"></path>
  <path class="cls-5" d="m340.8,515.72h-3.82v-26.19h3.82v26.19Z"></path>
  <path class="cls-5" d="m345.46,490.77c0-1.25,1.09-2.29,2.42-2.29s2.42,1.04,2.42,2.29-1.1,2.28-2.42,2.28-2.42-1.02-2.42-2.28Zm.49,5.31h3.82v19.64h-3.82v-19.64Z"></path>
  <path class="cls-5" d="m354.02,505.99c0-6,3.58-10.17,9.12-10.17,4.46,0,7.7,2.63,8.11,6.6h-3.72c-.41-1.84-1.89-3.38-4.32-3.38-3.2,0-5.32,2.65-5.32,6.85s2.08,6.98,5.32,6.98c2.19,0,3.84-1.25,4.32-3.38h3.72c-.42,3.82-3.43,6.61-8.07,6.61-5.7,0-9.16-4.21-9.16-10.13Z"></path>
  <path class="cls-5" d="m374.42,510.17c0-4.46,3.81-5.43,7.53-5.87,3.53-.41,4.96-.38,4.96-1.78v-.09c0-2.22-1.27-3.52-3.73-3.52s-4,1.34-4.57,2.74l-3.59-.82c1.28-3.58,4.55-5.01,8.11-5.01,3.12,0,7.62,1.14,7.62,6.85v13.04h-3.73v-2.69h-.15c-.73,1.47-2.56,3.12-5.81,3.12-3.73,0-6.64-2.12-6.64-5.98Zm12.51-1.53v-2.53c-.55.55-3.49.88-4.73,1.05-2.21.29-4.03,1.02-4.03,3.07,0,1.89,1.56,2.86,3.72,2.86,3.18,0,5.04-2.12,5.04-4.45Z"></path>
  <path class="cls-5" d="m405.01,499.15h-4.03v10.8c0,2.21,1.11,2.62,2.35,2.62.61,0,1.09-.12,1.34-.17l.69,3.16c-.45.17-1.27.4-2.48.41-3.02.06-5.74-1.66-5.73-5.23v-11.6h-2.88v-3.07h2.88v-4.71h3.82v4.71h4.03v3.07Z"></path>
  <path class="cls-5" d="m408.74,490.77c0-1.25,1.09-2.29,2.42-2.29s2.42,1.04,2.42,2.29-1.1,2.28-2.42,2.28-2.42-1.02-2.42-2.28Zm.49,5.31h3.82v19.64h-3.82v-19.64Z"></path>
  <path class="cls-5" d="m417.3,505.99c0-6.11,3.62-10.17,9.16-10.17s9.15,4.05,9.15,10.17-3.62,10.13-9.15,10.13-9.16-4.05-9.16-10.13Zm14.45-.01c0-3.76-1.69-6.96-5.28-6.96s-5.31,3.2-5.31,6.96,1.69,6.93,5.31,6.93,5.28-3.16,5.28-6.93Z"></path>
  <path class="cls-5" d="m443.69,515.72h-3.82v-19.64h3.67v3.2h.24c.91-2.08,2.84-3.45,5.79-3.45,4.02,0,6.69,2.54,6.69,7.4v12.49h-3.82v-12.03c0-2.85-1.57-4.55-4.17-4.55s-4.58,1.79-4.58,4.92v11.66Z"></path>
  <path class="cls-5" d="m155.42,529.52h3.5c-2.52,3.38-4.5,10.23-4.5,16.3s1.98,12.94,4.5,16.32h-3.5c-3.25-4.55-4.96-9.9-4.96-16.32s1.71-11.75,4.96-16.3Z"></path>
  <path class="cls-5" d="m163.25,532.73h3.95v22.79h11.87v3.4h-15.82v-26.19Z"></path>
  <path class="cls-5" d="m182.38,549.19c0-6.11,3.62-10.17,9.16-10.17s9.16,4.05,9.16,10.17-3.62,10.13-9.16,10.13-9.16-4.05-9.16-10.13Zm14.45-.01c0-3.76-1.69-6.96-5.28-6.96s-5.31,3.2-5.31,6.96,1.69,6.93,5.31,6.93,5.28-3.16,5.28-6.93Z"></path>
  <path class="cls-5" d="m204.83,562.24l3.29-1.36c.68,1.09,1.92,2.69,5.1,2.69,2.9,0,5.01-1.34,5.01-4.37v-3.86h-.24c-.69,1.25-2.08,3.29-5.69,3.29-4.64,0-8.21-3.34-8.21-9.6s3.49-10,8.24-10c3.66,0,5.01,2.23,5.69,3.44h.28v-3.18h3.75v20.08c0,5.01-3.86,7.3-8.86,7.3-4.69,0-7.31-2.05-8.35-4.41Zm13.44-13.27c0-3.98-1.79-6.7-5.13-6.7s-5.19,2.93-5.19,6.7,1.78,6.48,5.19,6.48,5.13-2.43,5.13-6.48Z"></path>
  <path class="cls-5" d="m247.95,544.69c-.45-1.32-1.55-2.63-3.93-2.63-2.17,0-3.81,1.07-3.8,2.58-.01,1.33.92,2.06,3.08,2.57l3.12.72c3.61.83,5.37,2.54,5.37,5.32,0,3.55-3.29,6.07-8.03,6.07-4.41,0-7.3-1.96-7.94-5.43l3.7-.56c.46,1.93,1.93,2.92,4.22,2.92,2.51,0,4.13-1.19,4.13-2.71,0-1.23-.88-2.07-2.78-2.49l-3.32-.73c-3.68-.82-5.37-2.67-5.37-5.46,0-3.48,3.15-5.82,7.58-5.82s6.64,1.99,7.43,5.05l-3.46.61Z"></path>
  <path class="cls-5" d="m259.81,558.92h-3.82v-26.19h3.77v9.74h.24c.92-2.12,2.76-3.45,5.82-3.45,4.04,0,6.73,2.51,6.73,7.4v12.49h-3.82v-12.03c0-2.88-1.57-4.55-4.21-4.55s-4.71,1.79-4.71,4.92v11.66Z"></path>
  <path class="cls-5" d="m277.17,533.97c0-1.25,1.09-2.29,2.42-2.29s2.42,1.04,2.42,2.29-1.1,2.28-2.42,2.28-2.42-1.02-2.42-2.28Zm.49,5.31h3.82v19.64h-3.82v-19.64Z"></path>
  <path class="cls-5" d="m286.62,539.28h3.73v3.18h.32c.68-1.21,1.99-3.44,5.64-3.44,4.74,0,8.25,3.75,8.25,10.11s-3.45,10.17-8.21,10.17c-3.58,0-4.99-2.19-5.68-3.44h-.23v10.42h-3.82v-27.01Zm8.87,16.76c3.41,0,5.2-3,5.2-6.94s-1.74-6.83-5.2-6.83-5.13,2.72-5.13,6.83,1.84,6.94,5.13,6.94Z"></path>
  <path class="cls-5" d="m308.84,539.28h3.73v3.18h.32c.68-1.21,1.99-3.44,5.64-3.44,4.74,0,8.25,3.75,8.25,10.11s-3.45,10.17-8.21,10.17c-3.58,0-4.99-2.19-5.68-3.44h-.23v10.42h-3.82v-27.01Zm8.87,16.76c3.41,0,5.2-3,5.2-6.94s-1.74-6.83-5.2-6.83-5.13,2.72-5.13,6.83,1.84,6.94,5.13,6.94Z"></path>
  <path class="cls-5" d="m330.57,533.97c0-1.25,1.09-2.29,2.42-2.29s2.42,1.04,2.42,2.29-1.1,2.28-2.42,2.28-2.42-1.02-2.42-2.28Zm.49,5.31h3.82v19.64h-3.82v-19.64Z"></path>
  <path class="cls-5" d="m343.84,558.92h-3.82v-19.64h3.67v3.2h.24c.91-2.08,2.84-3.45,5.79-3.45,4.01,0,6.69,2.54,6.69,7.4v12.49h-3.82v-12.03c0-2.85-1.57-4.55-4.17-4.55s-4.58,1.79-4.58,4.92v11.66Z"></path>
  <path class="cls-5" d="m361.4,562.24l3.29-1.36c.68,1.09,1.92,2.69,5.1,2.69,2.9,0,5.01-1.34,5.01-4.37v-3.86h-.24c-.69,1.25-2.08,3.29-5.69,3.29-4.64,0-8.21-3.34-8.21-9.6s3.49-10,8.24-10c3.66,0,5.01,2.23,5.69,3.44h.28v-3.18h3.75v20.08c0,5.01-3.86,7.3-8.86,7.3-4.69,0-7.31-2.05-8.35-4.41Zm13.44-13.27c0-3.98-1.79-6.7-5.13-6.7s-5.19,2.93-5.19,6.7,1.78,6.48,5.19,6.48,5.13-2.43,5.13-6.48Z"></path>
  <path class="cls-5" d="m386.13,564.37h-3.5c2.52-3.38,4.5-10.23,4.5-16.3s-1.98-12.94-4.5-16.32h3.5c3.25,4.55,4.96,9.9,4.96,16.32s-1.71,11.75-4.96,16.3Z"></path>
  <path class="cls-5" d="m682.82,484.02c.01-8.53,3.59-13.46,9.6-13.46s9.59,4.95,9.59,13.46-3.54,13.52-9.59,13.52c-6.06-.01-9.6-4.95-9.6-13.52Zm15.27,0c0-6.52-2.15-10.11-5.66-10.11s-5.67,3.59-5.68,10.11c0,6.55,2.13,10.1,5.68,10.1s5.66-3.55,5.66-10.1Z"></path>
  <path class="cls-5" d="m716.5,497.1h-3.96v-22.22h-.15l-6.27,4.09v-3.78l6.53-4.27h3.85v26.19Z"></path>
  <path class="cls-5" d="m723.09,484.02c.01-8.53,3.59-13.46,9.6-13.46s9.59,4.95,9.59,13.46-3.54,13.52-9.59,13.52c-6.06-.01-9.6-4.95-9.6-13.52Zm15.27,0c0-6.52-2.15-10.11-5.66-10.11s-5.66,3.59-5.68,10.11c0,6.55,2.14,10.1,5.68,10.1s5.66-3.55,5.66-10.1Z"></path>
  <path class="cls-5" d="m756.77,497.1h-3.96v-22.22h-.15l-6.27,4.09v-3.78l6.53-4.27h3.85v26.19Z"></path>
  <path class="cls-5" d="m773.78,497.1h-3.96v-22.22h-.15l-6.27,4.09v-3.78l6.53-4.27h3.85v26.19Z"></path>
  <path class="cls-5" d="m790.8,497.1h-3.96v-22.22h-.15l-6.27,4.09v-3.78l6.53-4.27h3.85v26.19Z"></path>
  <path class="cls-5" d="m797.39,484.02c.01-8.53,3.59-13.46,9.6-13.46s9.59,4.95,9.59,13.46-3.54,13.52-9.59,13.52c-6.06-.01-9.6-4.95-9.6-13.52Zm15.27,0c0-6.52-2.15-10.11-5.66-10.11s-5.66,3.59-5.68,10.11c0,6.55,2.14,10.1,5.68,10.1s5.66-3.55,5.66-10.1Z"></path>
  <path class="cls-5" d="m820.65,484.02c.01-8.53,3.59-13.46,9.6-13.46s9.59,4.95,9.59,13.46-3.54,13.52-9.59,13.52c-6.06-.01-9.6-4.95-9.6-13.52Zm15.27,0c0-6.52-2.15-10.11-5.67-10.11s-5.66,3.59-5.68,10.11c0,6.55,2.14,10.1,5.68,10.1s5.67-3.55,5.67-10.1Z"></path>
  <path class="cls-5" d="m854.32,497.1h-3.96v-22.22h-.15l-6.27,4.09v-3.78l6.54-4.27h3.85v26.19Z"></path>
  <path class="cls-5" d="m871.34,497.1h-3.96v-22.22h-.15l-6.27,4.09v-3.78l6.54-4.27h3.85v26.19Z"></path>
  <path class="cls-5" d="m877.93,484.02c.01-8.53,3.59-13.46,9.6-13.46s9.59,4.95,9.59,13.46-3.54,13.52-9.59,13.52c-6.06-.01-9.6-4.95-9.6-13.52Zm15.27,0c0-6.52-2.15-10.11-5.67-10.11s-5.67,3.59-5.68,10.11c0,6.55,2.14,10.1,5.68,10.1s5.67-3.55,5.67-10.1Z"></path>
  <path class="cls-5" d="m901.19,484.02c.01-8.53,3.59-13.46,9.6-13.46s9.59,4.95,9.59,13.46-3.54,13.52-9.59,13.52c-6.06-.01-9.6-4.95-9.6-13.52Zm15.27,0c0-6.52-2.15-10.11-5.67-10.11s-5.67,3.59-5.68,10.11c0,6.55,2.14,10.1,5.68,10.1s5.67-3.55,5.67-10.1Z"></path>
  <path class="cls-5" d="m934.86,497.1h-3.96v-22.22h-.15l-6.27,4.09v-3.78l6.53-4.27h3.85v26.19Z"></path>
  <path class="cls-5" d="m951.88,497.1h-3.96v-22.22h-.15l-6.27,4.09v-3.78l6.53-4.27h3.85v26.19Z"></path>
  <path class="cls-5" d="m968.9,497.1h-3.96v-22.22h-.15l-6.27,4.09v-3.78l6.53-4.27h3.85v26.19Z"></path>
  <path class="cls-5" d="m985.91,497.1h-3.96v-22.22h-.15l-6.27,4.09v-3.78l6.53-4.27h3.85v26.19Z"></path>
  <path class="cls-5" d="m720.72,935.72h-3.95v-26.19h3.95v26.19Z"></path>
  <path class="cls-5" d="m729.99,935.72h-3.82v-19.64h3.67v3.2h.24c.91-2.08,2.84-3.45,5.79-3.45,4.01,0,6.69,2.54,6.69,7.4v12.49h-3.82v-12.03c0-2.85-1.57-4.55-4.17-4.55s-4.58,1.79-4.58,4.92v11.66Z"></path>
  <path class="cls-5" d="m758.92,921.49c-.45-1.32-1.55-2.63-3.93-2.63-2.17,0-3.81,1.07-3.8,2.58-.01,1.33.92,2.06,3.08,2.57l3.12.72c3.61.83,5.37,2.54,5.37,5.32,0,3.55-3.29,6.07-8.03,6.07-4.41,0-7.3-1.96-7.94-5.43l3.7-.56c.46,1.93,1.93,2.92,4.22,2.92,2.51,0,4.13-1.19,4.13-2.71,0-1.23-.88-2.07-2.78-2.49l-3.32-.73c-3.68-.82-5.37-2.67-5.37-5.46,0-3.48,3.15-5.82,7.58-5.82s6.64,1.99,7.43,5.05l-3.46.61Z"></path>
  <path class="cls-5" d="m766.07,926.03c0-6.04,3.61-10.2,9.08-10.2,4.45,0,8.69,2.77,8.69,9.87v1.36h-13.96c.1,3.78,2.3,5.91,5.58,5.91,2.17,0,3.84-.95,4.53-2.8l3.62.65c-.87,3.2-3.9,5.31-8.18,5.31-5.79,0-9.35-3.99-9.35-10.09Zm14.03-1.84c-.01-3-1.96-5.2-4.92-5.2s-5.13,2.42-5.28,5.2h10.2Z"></path>
  <path class="cls-5" d="m788.1,916.08h3.7v3.12h.21c.72-2.11,2.69-3.41,4.99-3.41.49,0,1.24.04,1.62.09v3.66c-.31-.09-1.2-.23-2-.23-2.71,0-4.69,1.85-4.69,4.42v11.99h-3.82v-19.64Z"></path>
  <path class="cls-5" d="m812.25,919.15h-4.03v10.8c0,2.21,1.11,2.62,2.35,2.62.61,0,1.09-.12,1.34-.17l.69,3.16c-.45.17-1.27.4-2.48.41-3.02.06-5.74-1.66-5.73-5.23v-11.6h-2.88v-3.07h2.88v-4.71h3.82v4.71h4.03v3.07Z"></path>
  <path class="cls-5" d="m825.52,910.78c0-1.25,1.09-2.29,2.42-2.29s2.42,1.04,2.42,2.29-1.1,2.28-2.42,2.28-2.42-1.02-2.42-2.28Zm.49,5.31h3.82v19.64h-3.82v-19.64Z"></path>
  <path class="cls-5" d="m838.79,935.72h-3.82v-19.64h3.67v3.2h.24c.91-2.08,2.84-3.45,5.79-3.45,4.02,0,6.69,2.54,6.69,7.4v12.49h-3.82v-12.03c0-2.85-1.57-4.55-4.17-4.55s-4.58,1.79-4.58,4.92v11.66Z"></path>
  <path class="cls-5" d="m865.64,919.15h-4.03v10.8c0,2.21,1.11,2.62,2.35,2.62.61,0,1.09-.12,1.34-.17l.69,3.16c-.45.17-1.27.4-2.48.41-3.02.06-5.74-1.66-5.73-5.23v-11.6h-2.88v-3.07h2.88v-4.71h3.82v4.71h4.03v3.07Z"></path>
  <path class="cls-5" d="m868.77,925.99c0-6.11,3.62-10.17,9.16-10.17s9.15,4.05,9.15,10.17-3.62,10.13-9.15,10.13-9.16-4.05-9.16-10.13Zm14.45-.01c0-3.76-1.69-6.96-5.28-6.96s-5.31,3.2-5.31,6.96,1.69,6.93,5.31,6.93,5.28-3.16,5.28-6.93Z"></path>
  <path class="cls-5" d="m910.04,919.15h-4.03v10.8c0,2.21,1.11,2.62,2.35,2.62.61,0,1.09-.12,1.34-.17l.69,3.16c-.45.17-1.27.4-2.48.41-3.02.06-5.74-1.66-5.73-5.23v-11.6h-2.88v-3.07h2.88v-4.71h3.82v4.71h4.03v3.07Z"></path>
  <path class="cls-5" d="m924.14,935.72h-3.96v-22.22h-.15l-6.27,4.09v-3.78l6.53-4.27h3.85v26.19Z"></path>
  <path class="cls-5" d="m929.75,933.41c0-1.39,1.15-2.54,2.56-2.54s2.56,1.15,2.56,2.54-1.16,2.56-2.56,2.56-2.56-1.14-2.56-2.56Z"></path>
  <path class="cls-5" d="m939.94,933.41c0-1.39,1.15-2.54,2.56-2.54s2.56,1.15,2.56,2.54-1.16,2.56-2.56,2.56-2.56-1.14-2.56-2.56Z"></path>
  <path class="cls-5" d="m950.12,933.41c0-1.39,1.15-2.54,2.56-2.54s2.56,1.15,2.56,2.54-1.16,2.56-2.56,2.56-2.56-1.14-2.56-2.56Z"></path>
  <path class="cls-5" d="m111.98,925.62h3.95v22.79h11.87v3.4h-15.82v-26.19Z"></path>
  <path class="cls-5" d="m131.11,942.08c0-6.11,3.62-10.17,9.16-10.17s9.16,4.05,9.16,10.17-3.62,10.13-9.16,10.13-9.16-4.05-9.16-10.13Zm14.45-.01c0-3.76-1.69-6.96-5.28-6.96s-5.31,3.2-5.31,6.96,1.69,6.93,5.31,6.93,5.28-3.16,5.28-6.93Z"></path>
  <path class="cls-5" d="m153.55,955.13l3.29-1.36c.68,1.09,1.92,2.69,5.1,2.69,2.9,0,5.01-1.34,5.01-4.37v-3.86h-.24c-.69,1.25-2.08,3.29-5.69,3.29-4.64,0-8.21-3.34-8.21-9.6s3.49-10,8.23-10c3.66,0,5.01,2.23,5.69,3.44h.28v-3.18h3.75v20.08c0,5.01-3.86,7.3-8.86,7.3-4.69,0-7.31-2.05-8.35-4.41Zm13.44-13.27c0-3.98-1.79-6.7-5.13-6.7s-5.19,2.93-5.19,6.7,1.78,6.48,5.19,6.48,5.13-2.43,5.13-6.48Z"></path>
  <path class="cls-5" d="m175.4,926.86c0-1.25,1.09-2.29,2.42-2.29s2.42,1.04,2.42,2.29-1.1,2.28-2.42,2.28-2.42-1.02-2.42-2.28Zm.49,5.31h3.82v19.64h-3.82v-19.64Z"></path>
  <path class="cls-5" d="m183.97,942.08c0-6,3.58-10.17,9.12-10.17,4.46,0,7.7,2.63,8.11,6.6h-3.72c-.41-1.84-1.89-3.38-4.32-3.38-3.2,0-5.32,2.65-5.32,6.85s2.08,6.98,5.32,6.98c2.19,0,3.84-1.25,4.32-3.38h3.72c-.42,3.82-3.43,6.61-8.07,6.61-5.7,0-9.16-4.21-9.16-10.13Z"></path>
  <path class="cls-5" d="m204.37,946.26c0-4.46,3.81-5.43,7.53-5.87,3.53-.41,4.96-.38,4.96-1.78v-.09c0-2.22-1.27-3.52-3.73-3.52s-4,1.34-4.57,2.74l-3.59-.82c1.28-3.58,4.55-5.01,8.11-5.01,3.12,0,7.62,1.14,7.62,6.85v13.04h-3.73v-2.69h-.15c-.73,1.47-2.56,3.12-5.81,3.12-3.73,0-6.64-2.12-6.64-5.98Zm12.51-1.53v-2.53c-.55.55-3.49.88-4.73,1.05-2.21.29-4.03,1.02-4.03,3.07,0,1.89,1.56,2.86,3.72,2.86,3.18,0,5.04-2.12,5.04-4.45Z"></path>
  <path class="cls-5" d="m229.61,951.81h-3.82v-26.19h3.82v26.19Z"></path>
  <path class="cls-5" d="m244.59,925.62h9.33c6.07,0,9.07,3.39,9.07,8.21,0,3.52-1.6,6.19-4.81,7.38l5.81,10.6h-4.5l-5.32-9.91h-5.63v9.91h-3.95v-26.19Zm8.96,12.88c3.85,0,5.46-1.71,5.46-4.67s-1.61-4.82-5.51-4.82h-4.96v9.49h5.01Z"></path>
  <path class="cls-5" d="m266.37,942.12c0-6.04,3.61-10.2,9.08-10.2,4.45,0,8.7,2.77,8.7,9.87v1.36h-13.96c.1,3.78,2.3,5.91,5.57,5.91,2.17,0,3.84-.95,4.53-2.8l3.62.65c-.87,3.2-3.9,5.31-8.18,5.31-5.79,0-9.35-3.99-9.35-10.09Zm14.03-1.84c-.01-3-1.96-5.2-4.92-5.2s-5.13,2.42-5.28,5.2h10.2Z"></path>
  <path class="cls-5" d="m288.4,932.17h3.73v3.18h.32c.68-1.21,2-3.44,5.64-3.44,4.74,0,8.25,3.75,8.25,10.11s-3.45,10.17-8.21,10.17c-3.58,0-4.99-2.19-5.68-3.44h-.23v10.42h-3.82v-27.01Zm8.87,16.76c3.41,0,5.2-3,5.2-6.94s-1.74-6.83-5.2-6.83-5.13,2.72-5.13,6.83,1.84,6.94,5.13,6.94Z"></path>
  <path class="cls-5" d="m314.44,951.81h-3.82v-26.19h3.82v26.19Z"></path>
  <path class="cls-5" d="m319.1,926.86c0-1.25,1.09-2.29,2.42-2.29s2.42,1.04,2.42,2.29-1.1,2.28-2.42,2.28-2.42-1.02-2.42-2.28Zm.49,5.31h3.82v19.64h-3.82v-19.64Z"></path>
  <path class="cls-5" d="m327.66,942.08c0-6,3.58-10.17,9.12-10.17,4.46,0,7.7,2.63,8.11,6.6h-3.72c-.41-1.84-1.89-3.38-4.32-3.38-3.2,0-5.32,2.65-5.32,6.85s2.08,6.98,5.32,6.98c2.19,0,3.84-1.25,4.32-3.38h3.72c-.42,3.82-3.43,6.61-8.07,6.61-5.7,0-9.16-4.21-9.16-10.13Z"></path>
  <path class="cls-5" d="m348.06,946.26c0-4.46,3.81-5.43,7.53-5.87,3.53-.41,4.96-.38,4.96-1.78v-.09c0-2.22-1.27-3.52-3.73-3.52s-4,1.34-4.57,2.74l-3.59-.82c1.28-3.58,4.55-5.01,8.11-5.01,3.12,0,7.62,1.14,7.62,6.85v13.04h-3.73v-2.69h-.15c-.73,1.47-2.56,3.12-5.81,3.12-3.73,0-6.64-2.12-6.64-5.98Zm12.51-1.53v-2.53c-.55.55-3.49.88-4.73,1.05-2.21.29-4.03,1.02-4.03,3.07,0,1.89,1.56,2.86,3.72,2.86,3.18,0,5.04-2.12,5.04-4.45Z"></path>
  <path class="cls-5" d="m378.65,935.24h-4.03v10.8c0,2.21,1.11,2.62,2.35,2.62.61,0,1.09-.12,1.34-.17l.69,3.16c-.45.17-1.27.4-2.48.41-3.02.06-5.74-1.66-5.73-5.23v-11.6h-2.88v-3.07h2.88v-4.71h3.82v4.71h4.03v3.07Z"></path>
  <path class="cls-5" d="m382.38,926.86c0-1.25,1.09-2.29,2.42-2.29s2.42,1.04,2.42,2.29-1.1,2.28-2.42,2.28-2.42-1.02-2.42-2.28Zm.49,5.31h3.82v19.64h-3.82v-19.64Z"></path>
  <path class="cls-5" d="m390.94,942.08c0-6.11,3.62-10.17,9.16-10.17s9.16,4.05,9.16,10.17-3.62,10.13-9.16,10.13-9.16-4.05-9.16-10.13Zm14.45-.01c0-3.76-1.69-6.96-5.28-6.96s-5.31,3.2-5.31,6.96,1.69,6.93,5.31,6.93,5.28-3.16,5.28-6.93Z"></path>
  <path class="cls-5" d="m417.33,951.81h-3.82v-19.64h3.67v3.2h.24c.91-2.08,2.84-3.45,5.79-3.45,4.01,0,6.69,2.54,6.69,7.4v12.49h-3.82v-12.03c0-2.85-1.57-4.55-4.17-4.55s-4.58,1.79-4.58,4.92v11.66Z"></path>
  <path class="cls-5" d="m155.42,965.61h3.5c-2.52,3.38-4.5,10.23-4.5,16.3s1.98,12.94,4.5,16.32h-3.5c-3.25-4.55-4.96-9.9-4.96-16.32s1.71-11.75,4.96-16.3Z"></path>
  <path class="cls-5" d="m163.25,968.82h3.95v22.79h11.87v3.4h-15.82v-26.19Z"></path>
  <path class="cls-5" d="m182.38,985.28c0-6.11,3.62-10.17,9.16-10.17s9.16,4.05,9.16,10.17-3.62,10.13-9.16,10.13-9.16-4.05-9.16-10.13Zm14.45-.01c0-3.76-1.69-6.96-5.28-6.96s-5.31,3.2-5.31,6.96,1.69,6.93,5.31,6.93,5.28-3.16,5.28-6.93Z"></path>
  <path class="cls-5" d="m204.83,998.33l3.29-1.36c.68,1.09,1.92,2.69,5.1,2.69,2.9,0,5.01-1.34,5.01-4.37v-3.86h-.24c-.69,1.25-2.08,3.29-5.69,3.29-4.64,0-8.21-3.34-8.21-9.6s3.49-10,8.23-10c3.66,0,5.01,2.23,5.69,3.44h.28v-3.18h3.75v20.08c0,5.01-3.86,7.3-8.86,7.3-4.69,0-7.31-2.05-8.35-4.41Zm13.44-13.27c0-3.98-1.79-6.7-5.13-6.7s-5.19,2.93-5.19,6.7,1.78,6.48,5.19,6.48,5.13-2.43,5.13-6.48Z"></path>
  <path class="cls-5" d="m247.95,980.78c-.45-1.32-1.55-2.63-3.93-2.63-2.17,0-3.81,1.07-3.8,2.58-.01,1.33.92,2.06,3.08,2.57l3.12.72c3.61.83,5.37,2.54,5.37,5.32,0,3.55-3.29,6.07-8.03,6.07-4.41,0-7.3-1.96-7.94-5.43l3.7-.56c.46,1.93,1.93,2.92,4.22,2.92,2.51,0,4.13-1.19,4.13-2.71,0-1.23-.88-2.07-2.78-2.49l-3.32-.73c-3.68-.82-5.37-2.67-5.37-5.46,0-3.48,3.15-5.82,7.58-5.82s6.64,1.99,7.43,5.05l-3.46.61Z"></path>
  <path class="cls-5" d="m259.81,995.01h-3.82v-26.19h3.77v9.74h.24c.92-2.12,2.76-3.45,5.82-3.45,4.04,0,6.73,2.51,6.73,7.4v12.49h-3.82v-12.03c0-2.88-1.57-4.55-4.21-4.55s-4.71,1.79-4.71,4.92v11.66Z"></path>
  <path class="cls-5" d="m277.17,970.06c0-1.25,1.09-2.29,2.42-2.29s2.42,1.04,2.42,2.29-1.1,2.28-2.42,2.28-2.42-1.02-2.42-2.28Zm.49,5.31h3.82v19.64h-3.82v-19.64Z"></path>
  <path class="cls-5" d="m286.62,975.37h3.73v3.18h.32c.68-1.21,1.99-3.44,5.64-3.44,4.74,0,8.25,3.75,8.25,10.11s-3.45,10.17-8.21,10.17c-3.58,0-4.99-2.19-5.68-3.44h-.23v10.42h-3.82v-27.01Zm8.87,16.76c3.41,0,5.2-3,5.2-6.94s-1.74-6.83-5.2-6.83-5.13,2.72-5.13,6.83,1.84,6.94,5.13,6.94Z"></path>
  <path class="cls-5" d="m308.84,975.37h3.73v3.18h.32c.68-1.21,1.99-3.44,5.64-3.44,4.74,0,8.25,3.75,8.25,10.11s-3.45,10.17-8.21,10.17c-3.58,0-4.99-2.19-5.68-3.44h-.23v10.42h-3.82v-27.01Zm8.87,16.76c3.41,0,5.2-3,5.2-6.94s-1.74-6.83-5.2-6.83-5.13,2.72-5.13,6.83,1.84,6.94,5.13,6.94Z"></path>
  <path class="cls-5" d="m330.57,970.06c0-1.25,1.09-2.29,2.42-2.29s2.42,1.04,2.42,2.29-1.1,2.28-2.42,2.28-2.42-1.02-2.42-2.28Zm.49,5.31h3.82v19.64h-3.82v-19.64Z"></path>
  <path class="cls-5" d="m343.84,995.01h-3.82v-19.64h3.67v3.2h.24c.91-2.08,2.84-3.45,5.79-3.45,4.01,0,6.69,2.54,6.69,7.4v12.49h-3.82v-12.03c0-2.85-1.57-4.55-4.17-4.55s-4.58,1.79-4.58,4.92v11.66Z"></path>
  <path class="cls-5" d="m361.4,998.33l3.29-1.36c.68,1.09,1.92,2.69,5.1,2.69,2.9,0,5.01-1.34,5.01-4.37v-3.86h-.24c-.69,1.25-2.08,3.29-5.69,3.29-4.64,0-8.21-3.34-8.21-9.6s3.49-10,8.24-10c3.66,0,5.01,2.23,5.69,3.44h.28v-3.18h3.75v20.08c0,5.01-3.86,7.3-8.86,7.3-4.69,0-7.31-2.05-8.35-4.41Zm13.44-13.27c0-3.98-1.79-6.7-5.13-6.7s-5.19,2.93-5.19,6.7,1.78,6.48,5.19,6.48,5.13-2.43,5.13-6.48Z"></path>
  <path class="cls-5" d="m386.13,1000.46h-3.5c2.52-3.38,4.5-10.23,4.5-16.3s-1.98-12.94-4.5-16.32h3.5c3.25,4.55,4.96,9.9,4.96,16.32s-1.71,11.75-4.96,16.3Z"></path>
  <line class="cls-6" x1="679.71" y1="527.53" x2="967.67" y2="527.53"></line>
  <polygon class="cls-5" points="956.43 542.34 962.73 527.53 956.43 512.71 991.55 527.53 956.43 542.34"></polygon>
  <path class="cls-1" d="m1163.4,882.47c0,11.2-31.79,20.29-71,20.29s-71-9.08-71-20.29,31.79-20.29,71-20.29,71,9.08,71,20.29Z"></path>
  <path class="cls-1" d="m1143.11,933.19c-3.04,0-5.07-2.03-5.07-5.07s2.03-5.07,5.07-5.07,5.07,2.03,5.07,5.07-2.03,5.07-5.07,5.07Zm-50.71-20.29c-39.05,0-71-9.13-71-20.29v40.57c0,11.16,31.95,20.29,71,20.29s71-9.13,71-20.29v-40.57c0,11.16-31.95,20.29-71,20.29Z"></path>
  <path class="cls-1" d="m1143.11,983.9c-3.04,0-5.07-2.03-5.07-5.07s2.03-5.07,5.07-5.07,5.07,2.03,5.07,5.07-2.03,5.07-5.07,5.07Zm-50.71-20.29c-39.05,0-71-9.13-71-20.29v40.57c0,11.16,31.95,20.29,71,20.29s71-9.13,71-20.29v-40.57c0,11.16-31.95,20.29-71,20.29Z"></path>
  <path class="cls-1" d="m1143.11,1034.62c-3.04,0-5.07-2.03-5.07-5.07s2.03-5.07,5.07-5.07,5.07,2.03,5.07,5.07-2.03,5.07-5.07,5.07Zm-50.71-20.29c-39.05,0-71-9.13-71-20.29v40.57c0,11.16,31.95,20.29,71,20.29s71-9.13,71-20.29v-40.57c0,11.16-31.95,20.29-71,20.29Z"></path>
  <line class="cls-6" x1="679.71" y1="958.54" x2="967.67" y2="958.54"></line>
  <polygon class="cls-5" points="956.43 973.36 962.73 958.54 956.43 943.73 991.55 958.54 956.43 973.36"></polygon>
</svg>
